<svg width="552" height="570" viewBox="0 0 552 570" fill="none" xmlns="http://www.w3.org/2000/svg">
<path d="M65.6839 365.133L65.4943 356.633C65.4344 353.829 65.3443 351.053 65.3197 348.289L65.6839 348.653C59.0396 348.723 52.3959 348.865 45.7527 348.872L25.8219 348.955L26.4875 348.289L26.4161 365.133L25.8219 364.54C29.1099 364.563 32.3912 364.551 35.688 364.613L45.5989 364.763L65.6839 365.133V365.133ZM65.6839 365.133L45.9063 365.505L35.8869 365.655C32.5396 365.719 29.1771 365.705 25.8219 365.728L25.2297 365.732L25.2271 365.133L25.1557 348.289L25.1531 347.62L25.8219 347.623L45.7527 347.708C52.3959 347.715 59.0396 347.857 65.6839 347.925L66.0511 347.929L66.0473 348.289C66.0224 351.143 65.9328 353.98 65.8729 356.789L65.6839 365.133" fill="#E7E8E5"/>
<path d="M43.4473 386.373L43.2579 377.873C43.1979 375.068 43.1084 372.292 43.0833 369.529L43.4473 369.893C36.8036 369.961 30.1599 370.105 23.5161 370.112L3.58541 370.195L4.25156 369.529L4.17969 386.373L3.58541 385.78C6.87448 385.803 10.1552 385.789 13.4521 385.852L23.3625 386.001L43.4473 386.373ZM43.4473 386.373L23.6697 386.745L13.6505 386.895C10.3036 386.957 6.94062 386.945 3.58541 386.968L2.99374 386.972L2.99114 386.373L2.91926 369.529L2.91666 368.861L3.58541 368.864L23.5161 368.947C30.1599 368.953 36.8036 369.097 43.4473 369.167L43.8145 369.169L43.8115 369.529C43.7864 372.383 43.6969 375.22 43.6369 378.031L43.4473 386.373" fill="#E7E8E5"/>
<path d="M43.4473 21.892L43.2579 13.392C43.1979 10.588 43.1084 7.81062 43.0833 5.04795L43.4473 5.41195C36.8036 5.47995 30.1599 5.62397 23.5161 5.63064L3.58541 5.71462L4.25156 5.04795L4.17969 21.892L3.58541 21.2986C6.87448 21.3213 10.1552 21.3093 13.4521 21.372L23.3625 21.5213L43.4473 21.892ZM43.4473 21.892L23.6697 22.264L13.6505 22.4133C10.3036 22.476 6.94062 22.464 3.58541 22.4866L2.99374 22.4907L2.99114 21.892L2.91926 5.04795L2.91666 4.37999L3.58541 4.38265L23.5161 4.46664C30.1599 4.47331 36.8036 4.61596 43.4473 4.68396L43.8145 4.68799L43.8115 5.04795C43.7864 7.90129 43.6969 10.7387 43.6369 13.5493L43.4473 21.892" fill="#E7E8E5"/>
<path d="M547.417 21.892L547.228 13.392C547.168 10.588 547.079 7.81062 547.053 5.04795L547.417 5.41195C540.773 5.47995 534.131 5.62397 527.487 5.63064L507.556 5.71462L508.221 5.04795L508.149 21.892L507.556 21.2986C510.844 21.3213 514.125 21.3093 517.421 21.372L527.332 21.5213L547.417 21.892ZM547.417 21.892L527.64 22.264L517.62 22.4133C514.273 22.476 510.911 22.464 507.556 22.4866L506.964 22.4907L506.961 21.892L506.889 5.04795L506.887 4.37999L507.556 4.38265L527.487 4.46664C534.131 4.47331 540.773 4.61596 547.417 4.68396L547.784 4.68799L547.781 5.04795C547.756 7.90129 547.667 10.7387 547.607 13.5493L547.417 21.892" fill="#E7E8E5"/>
<path d="M525.181 43.1333L524.992 34.6319C524.931 31.8279 524.843 29.0506 524.817 26.2879L525.181 26.6519C518.537 26.7199 511.893 26.8639 505.251 26.8706L485.319 26.9546L485.984 26.2879L485.915 43.1319L485.319 42.5386C488.608 42.5613 491.889 42.5493 495.185 42.6106L505.096 42.7613L525.181 43.1333ZM525.181 43.1333L505.404 43.5039L495.384 43.6532C492.036 43.7159 488.675 43.7026 485.319 43.7266L484.728 43.7306L484.725 43.1319L484.653 26.2879L484.649 25.6186L485.319 25.6226L505.251 25.7066C511.893 25.7133 518.537 25.8559 525.181 25.9239L525.548 25.9279L525.544 26.2879C525.52 29.1399 525.431 31.9786 525.369 34.7893L525.181 43.1333" fill="#E7E8E5"/>
<path d="M423.089 240.191L422.901 231.691C422.841 228.885 422.752 226.109 422.727 223.347L423.089 223.711C416.447 223.779 409.804 223.921 403.159 223.928L383.228 224.012L383.895 223.347L383.823 240.191L383.228 239.596C386.517 239.62 389.799 239.607 393.095 239.669L403.005 239.819L423.089 240.191ZM423.089 240.191L403.313 240.563L393.293 240.712C389.947 240.775 386.584 240.761 383.228 240.785L382.637 240.789L382.635 240.191L382.563 223.347L382.56 222.677L383.228 222.68L403.159 222.764C409.804 222.771 416.447 222.915 423.089 222.983L423.457 222.987L423.455 223.347C423.428 226.199 423.34 229.037 423.28 231.847L423.089 240.191" fill="#E7E8E5"/>
<path d="M400.855 261.431L400.664 252.929C400.604 250.125 400.516 247.349 400.489 244.587L400.855 244.949C394.209 245.019 387.567 245.161 380.923 245.168L360.992 245.252L361.657 244.587L361.585 261.431L360.992 260.836C364.281 260.86 367.561 260.847 370.859 260.909L380.769 261.059L400.855 261.431ZM400.855 261.431L381.077 261.803L371.057 261.951C367.709 262.015 364.348 262.001 360.992 262.025L360.401 262.029L360.399 261.431L360.327 244.587L360.323 243.917L360.992 243.92L380.923 244.004C387.567 244.011 394.209 244.155 400.855 244.223L401.221 244.225L401.217 244.587C401.193 247.439 401.103 250.277 401.043 253.087L400.855 261.431" fill="#E7E8E5"/>
<path d="M378.705 240.191L378.516 231.691C378.456 228.885 378.365 226.109 378.341 223.347L378.705 223.711C372.061 223.779 365.419 223.921 358.775 223.928L338.844 224.012L339.509 223.347L339.437 240.191L338.844 239.596C342.132 239.62 345.413 239.607 348.709 239.669L358.621 239.819L378.705 240.191ZM378.705 240.191L358.928 240.563L348.909 240.712C345.561 240.775 342.197 240.761 338.844 240.785L338.252 240.789L338.249 240.191L338.177 223.347L338.175 222.677L338.844 222.68L358.775 222.764C365.419 222.771 372.061 222.915 378.705 222.983L379.073 222.987L379.069 223.347C379.044 226.199 378.955 229.037 378.895 231.847L378.705 240.191" fill="#E7E8E5"/>
<path d="M547.417 386.373L547.228 377.873C547.168 375.068 547.079 372.292 547.053 369.529L547.417 369.893C540.773 369.961 534.131 370.105 527.485 370.112L507.556 370.195L508.221 369.529L508.149 386.373L507.556 385.78C510.844 385.803 514.125 385.789 517.421 385.852L527.332 386.001L547.417 386.373ZM547.417 386.373L527.64 386.745L517.62 386.895C514.273 386.957 510.911 386.945 507.556 386.968L506.964 386.972L506.961 386.373L506.889 369.529L506.887 368.861L507.556 368.864L527.485 368.947C534.131 368.953 540.773 369.097 547.417 369.167L547.784 369.169L547.781 369.529C547.756 372.383 547.667 375.22 547.607 378.031L547.417 386.373" fill="#E7E8E5"/>
<path d="M208.736 71.9826L208.547 63.4813C208.487 60.6773 208.397 57.8999 208.372 55.1373L208.736 55.5013C202.092 55.5706 195.448 55.7133 188.805 55.7199L168.875 55.8039L169.54 55.1373L169.468 71.9826L168.875 71.3879C172.163 71.4106 175.444 71.3986 178.74 71.4613L188.651 71.6106L208.736 71.9826ZM208.736 71.9826L188.959 72.3546L178.939 72.5039C175.592 72.5666 172.229 72.5533 168.875 72.5773L168.283 72.5799L168.28 71.9826L168.208 55.1373L168.205 54.4693L168.875 54.472L188.805 54.5559C195.448 54.5626 202.092 54.7066 208.736 54.7746L209.103 54.7773L209.1 55.1373C209.075 57.9906 208.985 60.8293 208.925 63.6386L208.736 71.9826" fill="#E7E8E5"/>
<path d="M493.865 174.172C487.931 177.356 480.543 175.125 477.361 169.189C474.177 163.253 476.4 155.856 482.337 152.672C488.273 149.489 495.676 151.724 498.86 157.66C502.043 163.596 499.804 170.988 493.865 174.172ZM506.469 183.569L514.317 170.916L510.443 168.515C509.303 167.808 508.685 166.52 508.8 165.184C508.863 164.447 508.887 163.703 508.869 162.957C508.84 161.621 509.539 160.377 510.717 159.745L514.735 157.591L507.695 144.464L503.677 146.617C502.499 147.249 501.076 147.143 499.979 146.379C499.367 145.953 498.736 145.561 498.085 145.207C496.909 144.563 496.177 143.335 496.22 141.995L496.364 137.439L481.48 136.975L481.343 141.549C481.303 142.891 480.48 144.057 479.267 144.629C478.937 144.784 478.612 144.949 478.288 145.123C477.965 145.296 477.647 145.477 477.336 145.665C476.193 146.356 474.773 146.396 473.639 145.693L469.735 143.275L461.885 155.929L465.768 158.339C466.908 159.047 467.524 160.336 467.408 161.672C467.344 162.408 467.319 163.147 467.335 163.889C467.363 165.224 466.664 166.468 465.487 167.099L461.469 169.253L468.509 182.381L472.528 180.225C473.704 179.595 475.127 179.7 476.223 180.463C476.832 180.885 477.463 181.275 478.111 181.628C479.288 182.271 480.021 183.499 479.979 184.839L479.839 189.407L494.723 189.868L494.864 185.3C494.907 183.963 495.725 182.8 496.935 182.229C497.265 182.073 497.593 181.907 497.92 181.732C498.245 181.559 498.563 181.377 498.873 181.189C500.023 180.496 501.449 180.456 502.589 181.164L506.469 183.569" fill="#E7E8E5"/>
<path d="M64.9391 317.556C59.0027 320.74 51.6156 318.511 48.4328 312.575C45.2495 306.639 47.4729 299.241 53.4093 296.057C59.3459 292.875 66.7479 295.109 69.9317 301.045C73.1151 306.981 70.8751 314.373 64.9391 317.556V317.556ZM77.5412 326.953L85.3907 314.3L81.5151 311.899C80.3751 311.193 79.7573 309.904 79.8719 308.568C79.9349 307.831 79.9584 307.088 79.9421 306.343C79.9131 305.005 80.6115 303.761 81.7896 303.129L85.8068 300.976L78.7661 287.848L74.75 290.001C73.5713 290.635 72.1484 290.528 71.0516 289.764C70.4401 289.337 69.8079 288.947 69.1579 288.592C67.9817 287.947 67.25 286.72 67.2921 285.38L67.4369 280.823L52.5527 280.36L52.4156 284.933C52.3751 286.275 51.5527 287.443 50.3401 288.015C50.0104 288.169 49.6844 288.333 49.3609 288.508C49.0369 288.681 48.7193 288.863 48.4084 289.051C47.2651 289.74 45.8459 289.781 44.7109 289.077L40.8073 286.66L32.9579 299.315L36.8407 301.724C37.9797 302.431 38.5964 303.721 38.4803 305.057C38.4167 305.792 38.3921 306.532 38.4079 307.275C38.4349 308.611 37.7369 309.852 36.5599 310.484L32.5417 312.639L39.5812 325.765L43.6005 323.611C44.7765 322.98 46.1984 323.085 47.2959 323.847C47.9052 324.271 48.5355 324.66 49.1828 325.013C50.3599 325.656 51.0932 326.884 51.0521 328.224L50.9115 332.791L65.7948 333.253L65.9369 328.684C65.9787 327.347 66.7979 326.185 68.0073 325.613C68.338 325.457 68.6667 325.292 68.9937 325.116C69.3172 324.944 69.6349 324.763 69.9469 324.573C71.0953 323.88 72.5213 323.84 73.662 324.548L77.5412 326.953" fill="#E7E8E5"/>
<path d="M220.019 89.2599C220.019 93.9799 216.196 97.8013 211.477 97.8013C206.757 97.8013 202.927 93.9799 202.927 89.2599C202.927 84.5413 206.757 80.7106 211.477 80.7106C216.196 80.7106 220.019 84.5413 220.019 89.2599V89.2599ZM229.992 84.5919L224.779 75.5559L222.013 77.1533C221.2 77.6239 220.2 77.5786 219.413 77.0653C218.979 76.7826 218.528 76.5213 218.063 76.2853C217.227 75.8613 216.691 75.0172 216.691 74.0799V70.8879H206.255V74.0799C206.255 75.0172 205.719 75.8613 204.884 76.2853C204.419 76.5213 203.967 76.7826 203.532 77.0653C202.745 77.5786 201.745 77.6239 200.932 77.1533L198.167 75.5559L192.953 84.5919L195.731 86.1919C196.545 86.6599 196.993 87.5546 196.945 88.4933C196.932 88.7466 196.925 89.0039 196.925 89.2599C196.925 89.5173 196.932 89.7733 196.945 90.0279C196.993 90.9626 196.548 91.8519 195.739 92.3199L192.953 93.9293L198.167 102.965L200.94 101.367C201.753 100.897 202.753 100.943 203.54 101.457C203.973 101.74 204.423 102 204.885 102.236C205.719 102.661 206.255 103.504 206.255 104.44V107.633H216.691V104.44C216.691 103.504 217.227 102.661 218.06 102.236C218.524 102 218.972 101.74 219.405 101.457C220.192 100.944 221.192 100.897 222.005 101.367L224.779 102.965L229.992 93.9293L227.219 92.3279C226.407 91.8613 225.961 90.9706 226.008 90.0346C226.021 89.7786 226.028 89.5199 226.028 89.2599C226.028 89.0039 226.021 88.7466 226.008 88.4933C225.96 87.5546 226.408 86.6599 227.223 86.1893L229.992 84.5919" fill="#E7E8E5"/>
<path d="M60.6151 347.393C43.1907 364.452 40.2656 390.844 43.938 413.96C44.0333 414.485 44.8443 414.341 44.8443 413.848C44.8443 408.587 44.6849 403.372 44.7011 398.172C44.7964 397.935 44.8755 397.712 44.9713 397.473C49.5183 394.167 53.6995 390.431 56.2912 385.311C59.2 379.588 60.3443 373.133 62.5703 367.156C62.7776 366.583 62.1677 366.751 61.7677 367.047C51.1688 374.863 47.7907 383.276 44.7484 394.516C44.8912 388.681 45.3364 382.847 46.5927 377.012C48.8823 366.344 53.4136 355.772 61.076 347.855C61.3625 347.553 60.9172 347.092 60.6151 347.393" fill="#333333"/>
<path d="M63.8901 349.383C66.8875 349.484 68.7672 354.276 71.1031 355.672C72.3385 356.417 73.5421 356.372 74.4109 355.153C76.726 351.921 73.5495 347.936 70.5631 345.707C72.6989 346.584 74.4708 348.128 76.7735 348.565C78.1683 348.821 79.2521 348.304 79.5776 346.887C80.5927 342.481 75.0672 340.521 71.276 340.429C73.114 339.152 78.3817 335.677 75.5833 333.971C72.7473 332.256 66.5667 337.223 64.55 338.857C61.5875 341.261 58.0531 344.855 57.9197 348.615C57.7464 353.004 61.5833 350.303 63.8901 349.383" fill="#FABB1E"/>
<path d="M72.6448 356.164C72.1527 356.164 71.6307 355.991 71.1031 355.672C69.3719 354.637 67.8917 351.737 66.0208 350.264C65.7995 350.089 65.5729 349.935 65.3391 349.807C64.8839 349.555 64.4031 349.4 63.8901 349.383C62.5516 349.916 60.6973 351.051 59.4109 351.051C59.0568 351.051 58.7453 350.964 58.4995 350.756C58.3156 350.6 58.1688 350.376 58.0683 350.068C57.9677 349.761 57.9136 349.373 57.914 348.887C57.914 348.799 57.9161 348.709 57.9197 348.615C58.0531 344.855 61.5875 341.261 64.55 338.857C66.2765 337.457 71.0557 333.616 74.1745 333.616C74.6979 333.616 75.1755 333.724 75.5833 333.971C76.1516 334.317 76.3875 334.737 76.3864 335.196C76.3828 336.999 72.7407 339.411 71.276 340.429C74.7563 340.513 79.6973 342.172 79.7 345.851C79.7 346.18 79.6609 346.525 79.5776 346.887C79.3052 348.073 78.5016 348.628 77.4287 348.628C77.2197 348.628 77.0011 348.608 76.7735 348.565C74.4708 348.128 72.6989 346.584 70.5631 345.707C72.8323 347.4 75.2109 350.108 75.2073 352.728C75.2063 353.557 74.9672 354.377 74.4109 355.153C73.9131 355.852 73.3057 356.164 72.6448 356.164" fill="#F4AC12"/>
<path d="M63.0224 350.121C66.8547 348.38 74.2177 350.888 74.8437 349.437C76.1136 346.484 70.2292 344.459 67.0536 344.067C69.9787 343.275 75.5828 342.011 75.4099 339.191C75.2 335.747 66.8145 338.709 62.5703 341.963C57.2235 346.063 57.2584 350.019 58.1427 350.811C59.3547 351.897 62.3901 350.409 63.0224 350.121" fill="#FABB1E"/>
<path d="M20.9323 345.705C38.9927 362.089 42.9197 388.349 40.1292 411.589C40.0541 412.116 39.2385 412.004 39.2193 411.512C39.0188 406.253 38.9797 401.037 38.7661 395.841C38.6615 395.608 38.5735 395.389 38.4693 395.153C33.8 392.021 29.4797 388.447 26.6953 383.431C23.5703 377.823 22.1812 371.416 19.7297 365.527C19.5016 364.963 20.1172 365.108 20.5281 365.388C31.4167 372.795 35.1125 381.073 38.5797 392.189C38.214 386.365 37.5473 380.552 36.0708 374.769C33.3776 364.196 28.4473 353.804 20.4891 346.183C20.1912 345.892 20.6188 345.415 20.9323 345.705" fill="#333333"/>
<path d="M17.736 347.817C14.7443 348.032 13.0484 352.892 10.7672 354.377C9.56041 355.167 8.35625 355.167 7.44167 353.984C5.00521 350.843 8.0276 346.739 10.9271 344.397C8.82604 345.356 7.11459 346.965 4.83021 347.491C3.44584 347.799 2.34375 347.324 1.96407 345.919C0.782812 341.556 6.22917 339.388 10.0135 339.151C8.12917 337.943 2.73333 334.673 5.46407 332.86C8.23333 331.04 14.5984 335.767 16.6751 337.325C19.7281 339.615 23.3953 343.069 23.6719 346.823C24.0125 351.203 20.0755 348.649 17.736 347.817" fill="#FABB1E"/>
<path d="M9.16667 354.928C8.53594 354.928 7.94479 354.635 7.44167 353.984C6.81355 353.175 6.54792 352.3 6.55 351.409C6.55522 348.844 8.775 346.136 10.9271 344.397C8.82604 345.356 7.11459 346.965 4.83022 347.491C4.56251 347.549 4.30522 347.58 4.06198 347.58C3.04688 347.58 2.27031 347.052 1.96407 345.919C1.85208 345.505 1.8 345.112 1.8 344.737C1.79948 341.163 6.58751 339.365 10.0135 339.151C8.49688 338.179 4.70678 335.872 4.7073 334.063C4.7073 333.624 4.93074 333.215 5.46407 332.86C5.9 332.573 6.425 332.449 7.00834 332.449C10.1307 332.449 14.9251 336.012 16.6751 337.325C19.7281 339.615 23.3953 343.069 23.6719 346.823C23.686 347 23.6921 347.167 23.6927 347.321C23.6927 347.855 23.6151 348.26 23.4755 348.561C23.3489 348.584 23.2625 348.705 23.2412 348.917C23.2193 348.941 23.1969 348.963 23.174 348.984C22.9172 349.22 22.5781 349.315 22.1869 349.315C20.9041 349.315 19.0631 348.289 17.736 347.817C14.7443 348.032 13.0484 352.892 10.7672 354.377C10.2245 354.732 9.6823 354.928 9.16667 354.928" fill="#F4AC12"/>
<path d="M18.6303 348.523C14.7344 346.928 7.47188 349.713 6.79114 348.287C5.41093 345.385 11.213 343.137 14.3719 342.624C11.4187 341.945 5.77084 340.896 5.83593 338.071C5.91458 334.62 14.4068 337.263 18.7713 340.352C24.2708 344.247 24.386 348.2 23.5333 349.025C22.3625 350.159 19.2735 348.785 18.6303 348.523" fill="#FABB1E"/>
<path d="M39.4011 388.976C40.7349 397.609 42.388 406.537 45.0088 414.881C45.2593 415.641 46.3875 415.447 46.2713 414.625C45.0849 406.643 42.9224 398.807 41.7355 390.824C40.5307 382.747 39.886 374.559 40.3489 366.388C41.1093 352.936 44.7625 338.625 53.5407 328.1C53.7328 327.851 53.324 327.499 53.1251 327.729C35.5511 348.221 38.3469 373.344 38.3625 375.596C35.8751 367.113 33.3115 357.389 23.9 348.751C23.4943 348.379 23.1771 348.556 23.2448 349.188C24.9276 364.923 29.3021 373.139 38.4245 381.551C38.6839 384.044 39.0052 386.525 39.4011 388.976Z" fill="#333333"/>
<path d="M53.6995 330.457C56.8604 329.053 61.2213 333.079 64.3495 333.353C66.0057 333.504 67.2317 332.849 67.5197 331.149C68.2959 326.631 62.9937 324.093 58.7729 323.283C59.7875 323.22 60.7964 323.285 61.8011 323.351C63.4271 323.455 65.0421 323.56 66.6547 323.124C68.2312 322.687 69.0959 321.605 68.7193 319.971C67.5547 314.889 60.836 315.636 56.8563 317.448C58.1197 315.199 61.8364 308.944 58.0735 308.58C54.2683 308.228 50.3547 316.492 49.086 319.204C47.2219 323.191 45.364 328.697 47.1188 332.665C49.1479 337.307 51.7688 332.573 53.6995 330.457Z" fill="#FABB1E"/>
<path d="M49.1271 334.636C49.0807 334.636 49.0344 334.633 48.988 334.629C48.7339 334.603 48.4817 334.501 48.2349 334.308C47.8495 334.005 47.4745 333.48 47.1188 332.665C46.6213 331.541 46.4145 330.295 46.4151 328.993C46.4172 325.7 47.75 322.061 49.086 319.204C50.3287 316.548 54.1073 308.569 57.8364 308.569C57.9156 308.569 57.9948 308.573 58.0735 308.58C59.2755 308.696 59.714 309.413 59.7136 310.408C59.7131 312.529 57.7161 315.917 56.8563 317.448C58.5776 316.664 60.8109 316.08 62.886 316.08C65.6084 316.08 68.0584 317.087 68.7193 319.971C68.7781 320.227 68.8068 320.468 68.8068 320.696C68.8084 321.927 67.9849 322.755 66.6547 323.124C65.7527 323.368 64.8495 323.443 63.9443 323.443C63.2317 323.443 62.5172 323.396 61.8011 323.351C61.0849 323.304 60.3667 323.257 59.6453 323.257C59.3552 323.257 59.064 323.265 58.7729 323.283C62.7136 324.04 67.5964 326.301 67.5959 330.275C67.5959 330.557 67.5708 330.849 67.5197 331.149C67.3245 332.304 66.6969 332.976 65.7953 333.241C65.7828 333.245 65.7703 333.248 65.7573 333.252C65.4636 333.335 65.1407 333.375 64.7953 333.375C64.6505 333.375 64.5021 333.368 64.3495 333.353C64.05 333.327 63.7396 333.267 63.4193 333.18C60.8912 332.492 57.7912 330.161 55.1719 330.161C54.6604 330.161 54.1661 330.251 53.6995 330.457C53.1021 331.112 52.4396 332.017 51.7479 332.817C50.8932 333.807 49.9964 334.636 49.1271 334.636" fill="#F4AC12"/>
<path d="M53.1713 331.661C56.2708 327.924 65.1724 326.82 65.0917 325C64.9224 321.297 57.7984 322.157 54.3063 323.348C56.9417 321.055 62.1203 316.924 60.5224 314.084C58.5697 310.615 51.3604 317.909 48.5953 323.423C45.1115 330.369 47.1385 334.455 48.4552 334.833C50.2604 335.349 52.6593 332.279 53.1713 331.661" fill="#FABB1E"/>
<path d="M27.8385 393.711L20.088 452.932H67.2527C66.2812 447.684 57.5027 393.643 57.5027 393.643L27.8385 393.711Z" fill="#FABB1E"/>
<path d="M0 453.132L68.8751 452.808L137.751 452.689L275.501 452.466L413.251 452.688L482.128 452.805L551.003 453.132L482.128 453.457L413.251 453.575L275.501 453.797L137.751 453.573L68.8751 453.456L0 453.132Z" fill="#333333"/>
<path d="M474.244 540.995C474.244 556.513 385.263 569.095 275.501 569.095C165.739 569.095 76.7593 556.513 76.7593 540.995C76.7593 525.475 165.739 512.893 275.501 512.893C385.263 512.893 474.244 525.475 474.244 540.995Z" fill="#E7E8E5"/>
<path d="M107.468 186.096L139.803 177.879L129.107 135.795L107.468 186.096ZM152.265 245.837L143.987 213.264L78.6036 229.881L69.9625 195.881L122.214 76.7986L148.129 70.2119L173.327 169.359L194.251 164.04L202.951 198.279L182.029 203.596L190.307 236.168L152.265 245.837Z" fill="#333333"/>
<path d="M300.032 137.099C300.032 125.653 297.741 116.369 293.163 109.255C288.583 102.14 282.696 98.5826 275.501 98.5826C267.976 98.5826 261.967 102.14 257.471 109.255C252.971 116.369 250.724 125.653 250.724 137.099C250.724 148.548 252.971 157.789 257.471 164.819C261.967 171.853 267.976 175.368 275.501 175.368C282.696 175.368 288.583 171.853 293.163 164.819C297.741 157.789 300.032 148.548 300.032 137.099ZM339.529 137.099C339.529 147.892 337.892 157.828 334.624 166.904C331.351 175.981 326.853 183.832 321.129 190.455C315.403 197.079 308.657 202.231 300.892 205.911C293.121 209.589 284.657 211.429 275.501 211.429C266.34 211.429 257.837 209.589 249.988 205.911C242.137 202.231 235.349 197.079 229.627 190.455C223.9 183.832 219.445 175.981 216.256 166.904C213.067 157.828 211.473 147.892 211.473 137.099C211.473 126.304 213.067 116.369 216.256 107.292C219.445 98.216 223.9 90.3653 229.627 83.7413C235.349 77.1186 242.137 71.928 249.988 68.164C257.837 64.404 266.34 62.5213 275.501 62.5213C284.657 62.5213 293.121 64.404 300.892 68.164C308.657 71.928 315.403 77.1186 321.129 83.7413C326.853 90.3653 331.351 98.216 334.624 107.292C337.892 116.369 339.529 126.304 339.529 137.099Z" fill="#333333"/>
<path d="M392.651 166.921L425.585 172.257L432.529 129.395L392.651 166.921ZM409.96 239.56L415.333 206.384L348.74 195.595L354.351 160.965L449.695 72.532L476.088 76.8093L459.729 177.789L481.04 181.241L475.391 216.113L454.08 212.661L448.704 245.837L409.96 239.56Z" fill="#333333"/>
<path d="M209.307 19.4986C209.307 21.1506 209.557 22.7493 210.06 24.2919C210.563 25.8359 211.289 27.1999 212.241 28.3853C213.193 29.5706 214.36 30.5226 215.743 31.24C217.124 31.9586 218.696 32.3173 220.456 32.3173C222.251 32.3173 223.84 31.9493 225.223 31.2133C226.604 30.4773 227.772 29.4986 228.724 28.2773C229.675 27.0573 230.393 25.6839 230.877 24.1573C231.363 22.6319 231.605 21.0786 231.605 19.4986C231.605 17.8466 231.344 16.2493 230.824 14.7039C230.303 13.1613 229.567 11.796 228.615 10.6106C227.664 9.4253 226.497 8.48397 225.115 7.78264C223.732 7.08264 222.179 6.73329 220.456 6.73329C218.66 6.73329 217.063 7.10126 215.661 7.83726C214.261 8.57326 213.095 9.5426 212.161 10.7453C211.227 11.9493 210.519 13.3133 210.033 14.8386C209.548 16.3666 209.307 17.9186 209.307 19.4986V19.4986ZM220.401 38.8879C217.601 38.8879 215.06 38.3413 212.78 37.2453C210.5 36.1506 208.543 34.6973 206.909 32.8826C205.275 31.0706 204.009 28.9959 203.112 26.6626C202.215 24.3279 201.765 21.9413 201.765 19.4986C201.765 16.9493 202.241 14.5079 203.193 12.1733C204.144 9.83993 205.455 7.7746 207.124 5.9786C208.795 4.18393 210.779 2.75595 213.076 1.69728C215.373 0.637284 217.869 0.107961 220.563 0.107961C223.328 0.107961 225.851 0.673258 228.131 1.80392C230.411 2.93592 232.359 4.41594 233.975 6.24793C235.591 8.07993 236.847 10.1626 237.745 12.4959C238.643 14.8306 239.092 17.1999 239.092 19.6066C239.092 22.1559 238.624 24.588 237.692 26.904C236.757 29.22 235.464 31.2666 233.813 33.044C232.161 34.8213 230.187 36.2413 227.889 37.3C225.589 38.3586 223.095 38.8879 220.401 38.8879" fill="#333333"/>
<path d="M249.756 24.5613C249.756 25.8186 249.945 26.9586 250.321 27.9813C250.699 29.0039 251.219 29.8933 251.884 30.6479C252.548 31.4013 253.329 31.9853 254.227 32.3973C255.124 32.8106 256.093 33.0173 257.136 33.0173C258.176 33.0173 259.145 32.8106 260.044 32.3973C260.941 31.9853 261.723 31.4013 262.387 30.6479C263.051 29.8933 263.572 28.996 263.948 27.9546C264.325 26.9133 264.515 25.7653 264.515 24.5066C264.515 23.288 264.325 22.156 263.948 21.1133C263.572 20.0733 263.051 19.176 262.387 18.4213C261.723 17.6667 260.941 17.0839 260.044 16.6706C259.145 16.2573 258.176 16.0506 257.136 16.0506C256.093 16.0506 255.124 16.2666 254.227 16.6973C253.329 17.128 252.548 17.7213 251.884 18.4746C251.219 19.2293 250.699 20.1266 250.321 21.1679C249.945 22.2093 249.756 23.3413 249.756 24.5613V24.5613ZM257.136 39.1573C254.836 39.1573 252.772 38.7626 250.941 37.9733C249.111 37.184 247.556 36.1146 246.281 34.768C245.007 33.4213 244.028 31.868 243.347 30.1093C242.664 28.3506 242.323 26.5 242.323 24.5613C242.323 22.5866 242.664 20.72 243.347 18.96C244.028 17.2 245.007 15.6466 246.281 14.3013C247.556 12.9546 249.111 11.8866 250.941 11.0959C252.772 10.3066 254.836 9.91064 257.136 9.91064C259.433 9.91064 261.489 10.3066 263.303 11.0959C265.115 11.8866 266.66 12.9546 267.935 14.3013C269.209 15.6466 270.188 17.2 270.869 18.96C271.552 20.72 271.893 22.5866 271.893 24.5613C271.893 26.5 271.552 28.3506 270.869 30.1093C270.188 31.868 269.219 33.4213 267.961 34.768C266.704 36.1146 265.161 37.184 263.329 37.9733C261.499 38.7626 259.433 39.1573 257.136 39.1573" fill="#333333"/>
<path d="M291.229 33.0172C292.307 33.0172 293.303 32.7852 294.219 32.3172C295.135 31.8506 295.916 31.2226 296.561 30.4319C297.207 29.6426 297.709 28.7266 298.069 27.6852C298.428 26.6439 298.608 25.5666 298.608 24.4546C298.608 23.2679 298.411 22.1639 298.016 21.1413C297.62 20.1173 297.073 19.2293 296.372 18.4746C295.672 17.7213 294.847 17.1279 293.895 16.6973C292.943 16.2666 291.911 16.0506 290.799 16.0506C290.116 16.0506 289.416 16.1679 288.697 16.4012C287.979 16.6346 287.315 16.9666 286.704 17.3973C286.093 17.8279 285.547 18.3319 285.061 18.9053C284.577 19.4799 284.208 20.1093 283.957 20.7906V27.4159C284.604 29.0319 285.591 30.3693 286.919 31.4279C288.248 32.4879 289.685 33.0172 291.229 33.0172V33.0172ZM293.652 39.1573C291.425 39.1573 289.487 38.6639 287.836 37.6759C286.184 36.6893 284.891 35.3519 283.957 33.6639V50.0919H276.74V10.3959H283.041V15.2426C284.084 13.5919 285.429 12.2892 287.083 11.3372C288.733 10.3879 290.637 9.91061 292.791 9.91061C294.695 9.91061 296.453 10.2973 298.069 11.0693C299.685 11.8413 301.077 12.8826 302.244 14.1919C303.411 15.5039 304.325 17.0479 304.991 18.8253C305.655 20.6026 305.987 22.4786 305.987 24.4546C305.987 26.4999 305.681 28.4212 305.072 30.2159C304.461 32.0119 303.608 33.5746 302.513 34.9026C301.417 36.2319 300.116 37.2733 298.608 38.0266C297.1 38.7799 295.448 39.1573 293.652 39.1573" fill="#333333"/>
<path d="M321.553 39.1573C319.184 39.1573 316.867 38.78 314.605 38.0266C312.343 37.2733 310.404 36.1946 308.788 34.7946L311.48 30.2706C313.204 31.492 314.883 32.416 316.517 33.044C318.151 33.6733 319.776 33.9866 321.392 33.9866C322.827 33.9866 323.959 33.7173 324.785 33.1786C325.611 32.6399 326.024 31.868 326.024 30.864C326.024 29.8586 325.539 29.1213 324.569 28.6546C323.6 28.188 322.02 27.6493 319.829 27.0386C317.999 26.536 316.436 26.0519 315.143 25.5853C313.851 25.1186 312.808 24.588 312.02 23.996C311.229 23.4026 310.655 22.7213 310.296 21.9493C309.936 21.1773 309.757 20.2519 309.757 19.1759C309.757 17.7399 310.035 16.4466 310.592 15.2973C311.148 14.148 311.929 13.1693 312.935 12.3613C313.94 11.5533 315.117 10.9346 316.464 10.5039C317.809 10.0719 319.272 9.85595 320.853 9.85595C322.972 9.85595 324.955 10.1626 326.805 10.7733C328.653 11.3839 330.351 12.3706 331.895 13.7346L328.985 18.0973C327.549 17.0213 326.159 16.2306 324.811 15.728C323.465 15.2253 322.128 14.9733 320.8 14.9733C319.579 14.9733 318.555 15.2253 317.729 15.728C316.903 16.2306 316.489 17.0386 316.489 18.152C316.489 18.6546 316.588 19.0667 316.787 19.3907C316.983 19.7133 317.299 20.0013 317.729 20.252C318.16 20.504 318.725 20.7466 319.425 20.9786C320.127 21.2133 320.996 21.4559 322.037 21.7066C323.976 22.2093 325.637 22.7119 327.02 23.2146C328.403 23.7186 329.532 24.292 330.413 24.9373C331.293 25.5853 331.939 26.3306 332.353 27.1733C332.764 28.0173 332.972 29.0319 332.972 30.2159C332.972 32.9826 331.948 35.164 329.901 36.7613C327.856 38.3586 325.072 39.1573 321.553 39.1573" fill="#333333"/>
<path d="M339.057 38.6187V30.4853H346.275V38.6187H339.057ZM339.057 24.2387V-2.01412e-06H346.275V24.2387H339.057Z" fill="#333333"/>
<path d="M302.971 364.613H255.62V360.733H302.971V364.613Z" fill="#333333"/>
<path d="M302.971 369.667H255.62V365.787H302.971V369.667Z" fill="#333333"/>
<path d="M302.971 374.719H255.62V370.839H302.971V374.719Z" fill="#333333"/>
<path d="M302.971 379.771H255.62V375.891H302.971V379.771Z" fill="#333333"/>
<path d="M302.971 384.823H255.62V380.944H302.971V384.823Z" fill="#333333"/>
<path d="M323.468 485.612H233.445V481.732H323.468V485.612Z" fill="#333333"/>
<path d="M323.468 490.664H233.445V486.784H323.468V490.664Z" fill="#333333"/>
<path d="M323.468 495.716H233.445V491.836H323.468V495.716Z" fill="#333333"/>
<path d="M323.468 500.768H233.445V496.889H323.468V500.768Z" fill="#333333"/>
<path d="M233.445 505.821H323.468V501.942H233.445V505.821Z" fill="#333333"/>
<path d="M193.947 328.672C193.991 328.148 174.243 321.533 174.243 321.533L175.409 253.684L201.595 248.065L193.947 328.672" fill="#FABB1E"/>
<path d="M191.991 327.759C187.011 325.809 174.243 321.533 174.243 321.533L175.409 253.684L198.741 248.679C196.045 275.236 193.583 306.337 191.991 327.759Z" fill="#D59814"/>
<path d="M374.82 355.304C374.959 354.796 395.777 355.381 395.777 355.381L418.031 291.276L395.379 276.989L374.82 355.304" fill="#FABB1E"/>
<path d="M395.777 355.381C395.777 355.381 385.657 355.097 379.483 355.097C378.229 355.097 377.137 355.108 376.327 355.136C382.517 333.692 391.499 302.52 398.317 278.841L418.031 291.276L395.777 355.381" fill="#D59814"/>
<path d="M190.145 353.655C190.145 353.655 197.467 243.924 203.888 207.827C203.888 207.827 336.443 217.852 408.003 245.203C408.003 245.203 371.109 373.373 369.201 379.733C369.201 379.733 275.857 361.345 190.145 353.655" fill="#FABB1E"/>
<path d="M383.427 322.519L380.059 321.765C380.064 321.74 380.071 321.715 380.076 321.689L383.427 322.519ZM302.86 304.024L294.445 302.057L293.996 301.952L294.077 301.499L301.151 261.968C303.529 248.796 305.983 235.636 308.464 222.48C306.308 235.693 304.129 248.901 301.871 262.095L295.116 301.213L303.092 303.108C303.012 303.411 302.935 303.717 302.86 304.024" fill="#F4AC12"/>
<path d="M301.031 232.599C300.427 232.599 299.799 232.383 299.313 231.961C298.767 231.484 298.44 230.752 298.436 230.011C298.439 229.271 298.764 228.537 299.312 228.06C299.795 227.636 300.425 227.421 301.029 227.421C301.108 227.421 301.185 227.425 301.263 227.432C302.651 227.555 303.615 228.801 303.591 230.011C303.616 231.221 302.649 232.467 301.263 232.588C301.187 232.595 301.108 232.599 301.031 232.599V232.599ZM301.497 227.921C301.419 227.921 301.34 227.927 301.263 227.935C300.144 228.064 299.419 229.068 299.435 230.011C299.419 230.953 300.143 231.963 301.263 232.089C301.34 232.099 301.417 232.103 301.495 232.103C301.972 232.103 302.469 231.94 302.86 231.608C303.315 231.221 303.585 230.621 303.591 230.011C303.585 229.4 303.315 228.801 302.86 228.415C302.468 228.084 301.972 227.921 301.497 227.921" fill="#F4AC12"/>
<path d="M298.703 248.927C298.099 248.927 297.471 248.711 296.985 248.288C296.439 247.812 296.112 247.08 296.108 246.339C296.112 245.599 296.437 244.864 296.984 244.388C297.467 243.964 298.097 243.749 298.701 243.749C298.78 243.749 298.857 243.752 298.935 243.76C300.323 243.881 301.288 245.128 301.263 246.339C301.288 247.549 300.321 248.795 298.935 248.916C298.859 248.923 298.78 248.927 298.703 248.927V248.927ZM299.169 244.249C299.091 244.249 299.012 244.253 298.935 244.263C297.816 244.392 297.091 245.395 297.107 246.339C297.089 247.281 297.813 248.291 298.935 248.417C299.012 248.427 299.089 248.431 299.167 248.431C299.644 248.431 300.141 248.268 300.532 247.936C300.987 247.549 301.256 246.949 301.263 246.339C301.257 245.728 300.987 245.128 300.531 244.743C300.14 244.412 299.645 244.249 299.169 244.249" fill="#F4AC12"/>
<path d="M295.836 266.177C295.232 266.177 294.604 265.963 294.12 265.54C293.573 265.063 293.247 264.331 293.243 263.591C293.245 262.851 293.571 262.116 294.119 261.64C294.601 261.216 295.231 261.001 295.835 261.001C295.913 261.001 295.992 261.004 296.069 261.012C297.457 261.133 298.42 262.38 298.396 263.591C298.42 264.801 297.456 266.045 296.069 266.167C295.992 266.173 295.915 266.177 295.836 266.177V266.177ZM296.303 261.5C296.224 261.5 296.145 261.505 296.069 261.513C294.951 261.643 294.224 262.647 294.241 263.591C294.223 264.533 294.948 265.541 296.069 265.669C296.145 265.677 296.223 265.683 296.3 265.683C296.777 265.683 297.275 265.519 297.665 265.187C298.121 264.801 298.391 264.201 298.396 263.591C298.391 262.98 298.12 262.38 297.665 261.995C297.275 261.664 296.777 261.5 296.303 261.5" fill="#F4AC12"/>
<path d="M292.971 283.429C292.367 283.429 291.737 283.215 291.252 282.791C290.705 282.316 290.379 281.583 290.375 280.841C290.379 280.103 290.704 279.368 291.252 278.891C291.733 278.468 292.363 278.252 292.967 278.252C293.045 278.252 293.124 278.256 293.201 278.264C294.589 278.385 295.555 279.632 295.529 280.841C295.555 282.053 294.588 283.297 293.201 283.419C293.125 283.425 293.048 283.429 292.971 283.429V283.429ZM293.433 278.752C293.355 278.752 293.279 278.756 293.201 278.765C292.084 278.895 291.359 279.899 291.373 280.841C291.357 281.784 292.081 282.793 293.201 282.921C293.277 282.929 293.355 282.935 293.432 282.935C293.909 282.935 294.407 282.771 294.8 282.439C295.253 282.053 295.524 281.452 295.529 280.841C295.525 280.231 295.253 279.631 294.799 279.245C294.407 278.915 293.909 278.752 293.433 278.752" fill="#F4AC12"/>
<path d="M302.735 310.943C302.131 310.943 301.504 310.727 301.02 310.304C300.473 309.829 300.145 309.096 300.143 308.355C300.145 307.615 300.472 306.881 301.019 306.404C301.5 305.981 302.129 305.765 302.735 305.765C302.813 305.765 302.892 305.769 302.971 305.777C303.496 305.823 303.963 306.031 304.336 306.337C304.319 306.411 304.303 306.487 304.287 306.561C303.952 306.363 303.572 306.265 303.204 306.265C303.125 306.265 303.047 306.271 302.971 306.28C301.851 306.408 301.125 307.412 301.143 308.355C301.124 309.297 301.849 310.307 302.971 310.435C303.045 310.443 303.123 310.447 303.2 310.447C303.353 310.447 303.511 310.431 303.665 310.396C303.651 310.525 303.637 310.655 303.624 310.783C303.42 310.86 303.2 310.912 302.971 310.932C302.892 310.939 302.815 310.943 302.735 310.943" fill="#F4AC12"/>
<path d="M290.101 300.681C289.499 300.681 288.871 300.465 288.387 300.044C287.839 299.567 287.512 298.835 287.508 298.093C287.512 297.353 287.837 296.619 288.384 296.143C288.868 295.719 289.496 295.504 290.1 295.504C290.179 295.504 290.259 295.508 290.336 295.515C291.724 295.637 292.688 296.884 292.663 298.093C292.688 299.304 291.721 300.549 290.336 300.671C290.259 300.677 290.18 300.681 290.101 300.681V300.681ZM290.571 296.004C290.492 296.004 290.413 296.009 290.336 296.017C289.217 296.147 288.491 297.151 288.508 298.093C288.489 299.036 289.215 300.045 290.336 300.172C290.412 300.181 290.489 300.185 290.567 300.185C291.044 300.185 291.54 300.023 291.932 299.691C292.388 299.304 292.657 298.704 292.663 298.093C292.657 297.483 292.387 296.884 291.932 296.499C291.54 296.167 291.045 296.004 290.571 296.004" fill="#F4AC12"/>
<path d="M240.125 336.333C238.124 336.333 236.099 336.173 234.06 335.843C213.539 332.519 199.597 313.188 202.923 292.667C205.916 274.184 221.896 261.039 240.033 261.039C242.035 261.039 244.06 261.199 246.1 261.528C266.621 264.853 280.561 284.184 277.237 304.707C274.243 323.188 258.263 336.333 240.125 336.333" fill="#D59814"/>
<path d="M269.88 303.513C267.213 319.972 251.709 331.152 235.252 328.487C218.795 325.82 207.613 310.316 210.28 293.859C212.947 277.4 228.449 266.22 244.908 268.887C261.365 271.553 272.545 287.056 269.88 303.513Z" fill="#333333"/>
<path d="M237.111 294.665L230.053 293.521L231.196 286.464L238.253 287.608L237.111 294.665Z" fill="#FABB1E"/>
<path d="M231.196 286.464L224.139 285.321L225.281 278.264L232.339 279.407L231.196 286.464Z" fill="#FABB1E"/>
<path d="M259.425 291.039L252.368 289.895L253.511 282.837L260.568 283.981L259.425 291.039Z" fill="#FABB1E"/>
<path d="M226.648 314.535L219.591 313.391L220.735 306.335L227.792 307.477L226.648 314.535Z" fill="#FABB1E"/>
<path d="M254.877 319.109L247.82 317.965L248.964 310.908L256.021 312.052L254.877 319.109Z" fill="#FABB1E"/>
<path d="M234.849 308.62L227.792 307.477L228.935 300.42L235.992 301.563L234.849 308.62Z" fill="#FABB1E"/>
<path d="M243.036 302.785L235.979 301.643L237.123 294.585L244.18 295.728L243.036 302.785" fill="#FABB1E"/>
<path d="M251.224 296.952L244.168 295.809L245.311 288.751L252.368 289.895L251.224 296.952Z" fill="#FABB1E"/>
<path d="M248.964 310.908L241.907 309.764L243.049 302.707L250.107 303.849L248.964 310.908Z" fill="#FABB1E"/>
<path d="M377.712 323.164C372.905 343.389 352.612 355.889 332.387 351.083C312.161 346.276 299.661 325.983 304.469 305.757C309.275 285.532 329.568 273.032 349.793 277.839C370.02 282.645 382.519 302.939 377.712 323.164" fill="#FABB1E"/>
<path d="M341.121 352.111C338.24 352.111 335.312 351.777 332.387 351.083C315.085 346.971 303.436 331.525 303.44 314.484C303.44 311.787 303.733 309.047 304.343 306.308C304.095 307.441 303.9 308.568 303.751 309.693L311.069 311.255C309.459 326.153 319.149 340.275 334.111 343.832C336.457 344.389 338.804 344.656 341.115 344.656C353.995 344.656 365.739 336.355 369.804 323.783L377.123 325.343C377.167 325.199 377.211 325.053 377.253 324.908C372.549 341.243 357.58 352.111 341.121 352.111" fill="#D59814"/>
<path d="M377.253 324.908C377.42 324.333 377.572 323.751 377.712 323.164C377.804 322.777 377.889 322.391 377.969 322.004L377.972 322.005C377.893 322.392 377.807 322.783 377.715 323.169C377.577 323.761 377.423 324.336 377.253 324.908Z" fill="#D59814"/>
<path d="M304.343 306.308C304.383 306.123 304.424 305.939 304.468 305.753C304.559 305.368 304.656 304.984 304.759 304.605H304.761C304.659 304.985 304.56 305.371 304.469 305.757C304.425 305.941 304.383 306.124 304.343 306.308" fill="#D59814"/>
<path d="M377.123 325.343L369.804 323.783C370.052 323.017 370.271 322.237 370.46 321.441C370.552 321.053 370.636 320.667 370.712 320.279L377.969 322.004C377.889 322.391 377.804 322.777 377.712 323.164C377.572 323.751 377.42 324.333 377.253 324.908C377.211 325.053 377.167 325.199 377.123 325.343ZM311.069 311.255L303.751 309.693C303.9 308.568 304.095 307.441 304.343 306.308C304.383 306.124 304.425 305.941 304.469 305.757C304.56 305.371 304.659 304.985 304.761 304.605L312.017 306.329C311.912 306.709 311.812 307.095 311.72 307.481C311.421 308.74 311.205 310 311.069 311.255" fill="#A27619"/>
<path d="M370.46 321.441C366.605 337.661 350.331 347.685 334.111 343.832C317.889 339.976 307.864 323.701 311.72 307.481C315.576 291.26 331.849 281.235 348.071 285.091C364.291 288.945 374.315 305.22 370.46 321.441" fill="#333333"/>
<path d="M340.455 332.599L333.499 330.944L341.727 296.324L348.683 297.976L340.455 332.599Z" fill="#FABB1E"/>
<path d="M379.9 322.463L302.831 304.147C307.888 282.869 329.244 269.723 350.521 274.78C371.799 279.836 384.956 301.185 379.9 322.463" fill="#FABB1E"/>
<path d="M379.9 322.463L344.843 314.131L337.888 312.479L302.831 304.147C307.156 285.948 323.405 273.697 341.329 273.697C344.363 273.697 347.441 274.048 350.521 274.78C368.723 279.105 380.983 295.355 380.981 313.283C380.981 316.057 380.687 318.872 380.076 321.689C380.071 321.715 380.064 321.74 380.059 321.765C380.008 321.997 379.955 322.231 379.9 322.463" fill="#D59814"/>
<path d="M296.627 339.969C296.124 337.012 295.36 334.143 293.972 331.785C292.595 329.412 290.417 327.936 287.82 327.705C287.401 327.653 286.984 327.627 286.571 327.627C284.368 327.627 282.26 328.365 280.508 329.845C278.425 331.6 276.837 334.112 275.596 336.836C275.791 333.828 276.897 330.776 279.079 328.361C280.155 327.145 281.589 326.191 283.172 325.609C284.355 325.175 285.608 325.007 286.844 325.007C287.268 325.007 287.689 325.027 288.105 325.061C289.763 325.255 291.456 325.839 292.836 326.884C294.192 327.951 295.229 329.34 295.84 330.837C297.096 333.823 297.235 337.011 296.627 339.969" fill="#F4AC12"/>
<path d="M200.456 260.06C200.769 256.039 201.22 252.036 201.601 248.025C202.029 244.02 202.469 240.016 202.957 236.019C203.42 232.019 203.941 228.027 204.452 224.032C204.953 220.037 205.532 216.053 206.069 212.064L206.212 210.999L207.292 211.065C215.977 211.613 224.644 212.315 233.299 213.204C237.625 213.648 241.947 214.151 246.261 214.707C250.569 215.325 254.884 215.895 259.167 216.679L233.143 215.068L207.148 213.387L208.371 212.389C207.78 216.372 207.231 220.36 206.605 224.337C205.991 228.316 205.384 232.296 204.72 236.268C204.08 240.244 203.392 244.212 202.693 248.179C201.947 252.14 201.271 256.109 200.456 260.06" fill="white"/>
<path d="M206.717 290.483C207.591 285.648 209.788 281.04 212.739 277.029C213.473 276.02 214.309 275.087 215.113 274.128C215.984 273.229 216.891 272.361 217.784 271.479C218.757 270.687 219.743 269.901 220.743 269.14C221.805 268.465 222.853 267.763 223.935 267.116C225.072 266.571 226.203 266.007 227.351 265.488L230.927 264.251L234.628 263.487C235.871 263.304 237.133 263.267 238.38 263.172C243.4 263.043 248.339 264.113 252.872 265.949C248.047 265.047 243.239 264.544 238.499 264.997C233.771 265.437 229.176 266.851 225.068 269.165C220.928 271.425 217.261 274.543 214.164 278.164C211.079 281.804 208.525 285.927 206.717 290.483" fill="white"/>
<path d="M310.549 300.651C312.084 295.983 314.896 291.724 318.372 288.159C319.239 287.26 320.196 286.451 321.125 285.613C322.111 284.843 323.128 284.108 324.136 283.357C325.209 282.708 326.293 282.065 327.388 281.448C328.533 280.928 329.669 280.377 330.829 279.887C332.031 279.501 333.229 279.1 334.437 278.744L338.151 278.012L341.921 277.768C343.177 277.759 344.433 277.895 345.681 277.975C350.671 278.54 355.415 280.281 359.651 282.725C354.996 281.165 350.305 280.004 345.547 279.797C340.804 279.581 336.057 280.347 331.669 282.072C327.256 283.739 323.196 286.32 319.628 289.479C316.069 292.659 312.972 296.388 310.549 300.651" fill="white"/>
<path d="M194.357 421.277C184.715 421.277 163.605 419.109 150.021 401.644C132.643 379.3 138.923 336.425 139.199 334.611L146.744 335.756C146.681 336.168 140.685 377.211 156.045 396.959C171.063 416.268 198.301 413.496 198.575 413.461L199.433 421.045C199.135 421.079 197.267 421.277 194.357 421.277Z" fill="#FABB1E"/>
<path d="M193.753 421.273C183.857 421.183 163.328 418.752 150.021 401.644C140.059 388.836 137.872 369.28 137.871 354.58C137.871 343.637 139.081 335.384 139.199 334.611L146.744 335.756C146.717 335.937 145.54 343.983 145.54 354.619C145.539 368.159 147.443 385.899 156.045 396.959C166.756 410.729 183.683 413.269 192.609 413.581L193.753 421.273Z" fill="#FCD361"/>
<path d="M148.965 340.947C147.588 340.947 146.184 340.833 144.752 340.601C132.025 338.54 126.39 330.923 123.903 324.896C121.411 318.856 120.835 311.551 122.192 303.181L138.333 305.797C137.493 310.983 137.737 315.551 139.02 318.661C139.935 320.879 141.711 323.543 147.368 324.459C149.952 324.877 152.745 324.657 155.671 320.244C157.928 316.839 159.285 312.204 159.76 309.269L175.901 311.884C175.528 314.193 173.947 322.273 169.299 329.28C164.244 336.903 157.131 340.947 148.965 340.947Z" fill="#FABB1E"/>
<path d="M210.301 443.118C210.273 442.771 196.627 440.589 196.627 440.589L190.003 396.049L206.531 389.52L210.301 443.118Z" fill="#FABB1E"/>
<path d="M208.469 442.638C204.743 441.887 196.627 440.589 196.627 440.589L190.003 396.049L204.78 390.212C205.267 406.296 206.801 425.441 208.469 442.638" fill="#D59814"/>
<path d="M345.229 443.2C345.265 442.853 358.957 440.976 358.957 440.976L366.564 396.592L350.184 389.7L345.229 443.2" fill="#FABB1E"/>
<path d="M361.996 423.241L365.969 396.341L366.564 396.592L361.996 423.241ZM350.459 398.847C350.793 395.601 351.093 392.684 351.351 390.191L364.977 395.924L361.168 395.225L350.459 398.847V398.847Z" fill="#D59814"/>
<path d="M204.623 379.548C204.623 379.548 315.004 374.828 352.291 381.043C352.291 381.043 341.341 487.849 340.751 489.921C340.751 489.921 230.948 489.625 213.784 489.921C213.784 489.921 204.481 418.899 204.623 379.548Z" fill="#FABB1E"/>
<path d="M312.463 464.472C312.463 464.472 285.821 464.405 265.285 464.405C257.523 464.405 250.637 464.414 246.387 464.442L241.911 408.679C249.095 408.436 265.519 407.949 281.917 407.949C296.309 407.949 310.681 408.324 318.763 409.568L312.463 464.472" fill="#D59814"/>
<path d="M243.148 464.476C243.148 464.476 239.036 427.608 238.147 408.812C238.147 408.812 239.517 408.759 241.911 408.679C239.519 408.76 238.151 408.815 238.151 408.815C239.033 427.611 243.151 464.472 243.151 464.472C243.913 464.46 245.012 464.449 246.387 464.442V464.448C245.007 464.448 243.913 464.466 243.148 464.476" fill="#D59814"/>
<path d="M243.151 464.472C243.151 464.472 239.033 427.611 238.151 408.815C238.151 408.815 239.519 408.76 241.911 408.68L246.387 464.442C245.012 464.449 243.913 464.46 243.151 464.472" fill="#A27619"/>
<path d="M267.6 429.908C266.665 432.876 263.507 434.521 260.543 433.588C257.579 432.653 255.932 429.496 256.867 426.527C257.801 423.563 260.96 421.917 263.928 422.852C266.889 423.785 268.535 426.945 267.6 429.908V429.908ZM264.161 422.105C260.783 421.041 257.185 422.916 256.12 426.291C255.056 429.671 256.932 433.267 260.309 434.332C263.684 435.395 267.279 433.521 268.343 430.144C269.407 426.771 267.535 423.168 264.161 422.105V422.105ZM267.6 429.908C266.665 432.876 263.507 434.521 260.543 433.588C257.579 432.653 255.932 429.496 256.867 426.527C257.801 423.563 260.96 421.917 263.928 422.852C266.889 423.785 268.535 426.945 267.6 429.908V429.908ZM264.161 422.105C260.783 421.041 257.185 422.916 256.12 426.291C255.056 429.671 256.932 433.267 260.309 434.332C263.684 435.395 267.279 433.521 268.343 430.144C269.407 426.771 267.535 423.168 264.161 422.105V422.105ZM267.6 429.908C266.665 432.876 263.507 434.521 260.543 433.588C257.579 432.653 255.932 429.496 256.867 426.527C257.801 423.563 260.96 421.917 263.928 422.852C266.889 423.785 268.535 426.945 267.6 429.908V429.908ZM268.343 430.144C269.407 426.771 267.535 423.168 264.161 422.105C260.783 421.041 257.185 422.916 256.12 426.291C255.056 429.671 256.932 433.267 260.309 434.332C263.684 435.395 267.279 433.521 268.343 430.144V430.144ZM269.296 430.443C268.068 434.339 263.903 436.509 260.008 435.283C256.115 434.056 253.944 429.891 255.172 425.995C256.4 422.097 260.568 419.929 264.461 421.157C268.352 422.384 270.523 426.549 269.296 430.443ZM266.296 415.335C259.175 413.092 251.592 417.048 249.349 424.159C247.108 431.273 251.056 438.861 258.173 441.102C265.285 443.342 272.875 439.39 275.115 432.277C277.359 425.167 273.408 417.573 266.296 415.335ZM267.6 429.908C266.665 432.876 263.507 434.521 260.543 433.588C257.579 432.653 255.932 429.496 256.867 426.527C257.801 423.563 260.96 421.917 263.928 422.852C266.889 423.785 268.535 426.945 267.6 429.908V429.908ZM264.161 422.105C260.783 421.041 257.185 422.916 256.12 426.291C255.056 429.671 256.932 433.267 260.309 434.332C263.684 435.395 267.279 433.521 268.343 430.144C269.407 426.771 267.535 423.168 264.161 422.105V422.105ZM267.6 429.908C266.665 432.876 263.507 434.521 260.543 433.588C257.579 432.653 255.932 429.496 256.867 426.527C257.801 423.563 260.96 421.917 263.928 422.852C266.889 423.785 268.535 426.945 267.6 429.908V429.908ZM264.161 422.105C260.783 421.041 257.185 422.916 256.12 426.291C255.056 429.671 256.932 433.267 260.309 434.332C263.684 435.395 267.279 433.521 268.343 430.144C269.407 426.771 267.535 423.168 264.161 422.105V422.105ZM267.6 429.908C266.665 432.876 263.507 434.521 260.543 433.588C257.579 432.653 255.932 429.496 256.867 426.527C257.801 423.563 260.96 421.917 263.928 422.852C266.889 423.785 268.535 426.945 267.6 429.908V429.908ZM264.161 422.105C260.783 421.041 257.185 422.916 256.12 426.291C255.056 429.671 256.932 433.267 260.309 434.332C263.684 435.395 267.279 433.521 268.343 430.144C269.407 426.771 267.535 423.168 264.161 422.105" fill="#FABB1E"/>
<path d="M260.819 441.347L255.864 439.787L255.033 443.38L259.44 444.768L260.819 441.347" fill="#FABB1E"/>
<path d="M251.916 436.708L249.516 432.101L246.388 434.055L248.523 438.151L251.916 436.708" fill="#FABB1E"/>
<path d="M248.901 427.131L250.463 422.176L246.869 421.345L245.48 425.752L248.901 427.131" fill="#FABB1E"/>
<path d="M253.541 418.227L258.148 415.829L256.196 412.7L252.097 414.835L253.541 418.227" fill="#FABB1E"/>
<path d="M263.117 415.213L268.072 416.775L268.903 413.18L264.497 411.792L263.117 415.213" fill="#FABB1E"/>
<path d="M272.021 419.853L274.42 424.46L277.548 422.507L275.415 418.409L272.021 419.853" fill="#FABB1E"/>
<path d="M275.036 429.431L273.475 434.384L277.068 435.216L278.456 430.809L275.036 429.431" fill="#FABB1E"/>
<path d="M270.395 438.333L265.788 440.732L267.741 443.86L271.839 441.726L270.395 438.333" fill="#FABB1E"/>
<path d="M286.767 446.64C285.625 448.395 283.279 448.89 281.525 447.749C279.772 446.608 279.276 444.263 280.419 442.505C281.56 440.753 283.907 440.257 285.661 441.399C287.413 442.542 287.909 444.887 286.767 446.64ZM285.948 440.957C283.951 439.656 281.277 440.223 279.977 442.219C278.676 444.219 279.243 446.889 281.24 448.189C283.236 449.49 285.907 448.925 287.207 446.926C288.507 444.932 287.944 442.257 285.948 440.957V440.957ZM286.767 446.64C285.625 448.395 283.279 448.89 281.525 447.749C279.772 446.608 279.276 444.263 280.419 442.505C281.56 440.753 283.907 440.257 285.661 441.399C287.413 442.542 287.909 444.887 286.767 446.64ZM285.948 440.957C283.951 439.656 281.277 440.223 279.977 442.219C278.676 444.219 279.243 446.889 281.24 448.189C283.236 449.49 285.907 448.925 287.207 446.926C288.507 444.932 287.944 442.257 285.948 440.957V440.957ZM286.767 446.64C285.625 448.395 283.279 448.89 281.525 447.749C279.772 446.608 279.276 444.263 280.419 442.505C281.56 440.753 283.907 440.257 285.661 441.399C287.413 442.542 287.909 444.887 286.767 446.64ZM287.207 446.926C288.507 444.932 287.944 442.257 285.948 440.957C283.951 439.656 281.277 440.223 279.977 442.219C278.676 444.219 279.243 446.889 281.24 448.189C283.236 449.49 285.907 448.925 287.207 446.926V446.926ZM287.771 447.292C286.269 449.597 283.176 450.252 280.872 448.752C278.569 447.252 277.916 444.159 279.416 441.853C280.917 439.549 284.012 438.896 286.315 440.396C288.616 441.895 289.271 444.989 287.771 447.292ZM288.557 436.952C284.345 434.211 278.712 435.404 275.972 439.611C273.232 443.82 274.42 449.453 278.631 452.195C282.837 454.933 288.473 453.742 291.212 449.535C293.953 445.33 292.764 439.69 288.557 436.952V436.952ZM286.767 446.64C285.625 448.395 283.279 448.89 281.525 447.749C279.772 446.608 279.276 444.263 280.419 442.505C281.56 440.753 283.907 440.257 285.661 441.399C287.413 442.542 287.909 444.887 286.767 446.64ZM285.948 440.957C283.951 439.656 281.277 440.223 279.977 442.219C278.676 444.219 279.243 446.889 281.24 448.189C283.236 449.49 285.907 448.925 287.207 446.926C288.507 444.932 287.944 442.257 285.948 440.957V440.957ZM286.767 446.64C285.625 448.395 283.279 448.89 281.525 447.749C279.772 446.608 279.276 444.263 280.419 442.505C281.56 440.753 283.907 440.257 285.661 441.399C287.413 442.542 287.909 444.887 286.767 446.64ZM285.948 440.957C283.951 439.656 281.277 440.223 279.977 442.219C278.676 444.219 279.243 446.889 281.24 448.189C283.236 449.49 285.907 448.925 287.207 446.926C288.507 444.932 287.944 442.257 285.948 440.957V440.957ZM286.767 446.64C285.625 448.395 283.279 448.89 281.525 447.749C279.772 446.608 279.276 444.263 280.419 442.505C281.56 440.753 283.907 440.257 285.661 441.399C287.413 442.542 287.909 444.887 286.767 446.64ZM285.948 440.957C283.951 439.656 281.277 440.223 279.977 442.219C278.676 444.219 279.243 446.889 281.24 448.189C283.236 449.49 285.907 448.925 287.207 446.926C288.507 444.932 287.944 442.257 285.948 440.957" fill="#D4D6D3"/>
<path d="M280.301 452.832L277.371 450.924L276.183 453.104L278.789 454.8L280.301 452.832" fill="#D4D6D3"/>
<path d="M275.367 448.213L274.644 444.79L272.261 445.493L272.905 448.536L275.367 448.213Z" fill="#D4D6D3"/>
<path d="M275.143 441.457L277.052 438.526L274.872 437.337L273.175 439.945L275.143 441.457" fill="#D4D6D3"/>
<path d="M279.763 436.523L283.184 435.799L282.483 433.417L279.44 434.06L279.763 436.523" fill="#D4D6D3"/>
<path d="M286.519 436.299L289.449 438.208L290.637 436.028L288.031 434.331L286.519 436.299" fill="#D4D6D3"/>
<path d="M291.453 440.919L292.176 444.338L294.557 443.638L293.916 440.596L291.453 440.919" fill="#D4D6D3"/>
<path d="M291.676 447.673L289.768 450.605L291.948 451.793L293.644 449.187L291.676 447.673" fill="#D4D6D3"/>
<path d="M287.057 452.609L283.636 453.332L284.336 455.713L287.379 455.071L287.057 452.609" fill="#D4D6D3"/>
<path d="M349.628 477.493L353.868 478.281L366.003 396.113L361.168 395.225L349.628 477.493" fill="#FABB1E"/>
<path d="M312.463 464.472L318.763 409.568L361.168 395.225C361.168 395.225 349.628 478.381 349.628 477.493L312.463 464.472" fill="#FABB1E"/>
<path d="M349.631 477.493H361.168V395.225H349.631V477.493Z" fill="#FCD361"/>
<path d="M349.628 477.5C349.628 477.5 349.628 477.497 349.628 477.493L342.484 474.989L312.463 464.472L318.763 409.568L361.168 395.225C361.129 395.505 349.867 476.656 349.631 477.493C349.631 477.497 349.629 477.5 349.628 477.5" fill="#FCD361"/>
<path d="M209.688 411.792C208.997 407.244 208.624 402.66 208.34 398.071C208.211 395.776 208.152 393.476 208.101 391.177C208.055 388.879 208.015 386.577 208.084 384.277L208.101 383.673L208.689 383.641C217.113 383.189 225.532 382.636 233.961 382.268C242.387 381.852 250.815 381.475 259.248 381.211C250.84 381.972 242.429 382.62 234.016 383.229C225.607 383.888 217.185 384.359 208.771 384.933L209.377 384.297L209.343 391.164L209.423 398.032C209.435 400.324 209.476 402.615 209.543 404.907L209.688 411.792" fill="white"/>
<path d="M324.679 410.375C327.305 409.127 329.973 407.967 332.673 406.895C335.364 405.799 338.083 404.763 340.829 403.809C343.581 402.869 346.343 401.949 349.149 401.169C351.953 400.38 354.783 399.651 357.673 399.177L358.384 399.061L358.256 399.74C357.591 403.295 356.895 406.844 356.072 410.375C356.38 406.764 356.815 403.172 357.28 399.585L357.863 400.148C355.063 400.816 352.284 401.597 349.513 402.416C346.745 403.243 343.985 404.115 341.233 405.012L324.679 410.375Z" fill="white"/>
<path d="M231.808 489.696L231.092 475.964L230.481 462.226L229.424 434.751L228.599 407.265L228.267 393.519L228.103 383.665C228.149 383.661 228.195 383.659 228.24 383.656L228.752 393.503L229.364 407.239L230.423 434.716L231.251 462.201L231.581 475.947L231.808 489.696ZM228.084 382.551L228.039 379.771L228.183 382.545C228.151 382.548 228.117 382.549 228.084 382.551Z" fill="#F4AC12"/>
<path d="M228.103 383.665L228.084 382.551C228.117 382.549 228.151 382.548 228.183 382.545L228.24 383.656C228.195 383.659 228.149 383.661 228.103 383.665Z" fill="#E0E1DE"/>
<path d="M221.589 391.141C221.148 391.141 220.697 391.032 220.299 390.804C219.668 390.447 219.203 389.792 219.053 389.067C218.909 388.34 219.084 387.557 219.527 386.981C219.967 386.403 220.643 386.052 221.313 385.98C221.407 385.969 221.5 385.964 221.591 385.964C222.855 385.964 223.904 386.936 224.105 388.048C223.979 387.449 223.596 386.916 223.073 386.628C222.756 386.453 222.404 386.372 222.06 386.372C221.837 386.372 221.617 386.407 221.413 386.472C220.343 386.821 219.829 387.947 220.032 388.869C220.192 389.748 221.017 390.553 222.06 390.553C222.117 390.553 222.176 390.551 222.235 390.547C222.78 390.5 223.335 390.227 223.704 389.757C224.075 389.289 224.221 388.648 224.105 388.048C224.369 389.229 223.668 390.641 222.333 391.033C222.096 391.105 221.844 391.141 221.589 391.141" fill="#F4AC12"/>
<path d="M222.535 407.607C222.093 407.607 221.644 407.497 221.244 407.271C220.613 406.911 220.148 406.257 219.999 405.532C219.856 404.807 220.028 404.021 220.472 403.447C220.912 402.869 221.588 402.516 222.26 402.447C222.353 402.436 222.445 402.431 222.536 402.431C223.8 402.431 224.851 403.403 225.051 404.513C224.925 403.916 224.541 403.381 224.019 403.093C223.701 402.919 223.351 402.837 223.008 402.837C222.784 402.837 222.564 402.872 222.359 402.939C221.288 403.285 220.775 404.413 220.977 405.335C221.137 406.213 221.961 407.019 223.004 407.019C223.061 407.019 223.121 407.016 223.18 407.011C223.724 406.964 224.28 406.692 224.651 406.223C225.02 405.755 225.165 405.112 225.051 404.513C225.315 405.696 224.613 407.107 223.279 407.5C223.041 407.571 222.789 407.607 222.535 407.607" fill="#F4AC12"/>
<path d="M223.135 425.085C222.693 425.085 222.243 424.976 221.844 424.748C221.213 424.388 220.748 423.735 220.597 423.009C220.455 422.284 220.629 421.5 221.072 420.925C221.512 420.347 222.188 419.995 222.86 419.924C222.952 419.913 223.045 419.908 223.136 419.908C224.4 419.908 225.451 420.88 225.651 421.992C225.525 421.393 225.14 420.859 224.619 420.571C224.303 420.397 223.951 420.315 223.608 420.315C223.384 420.315 223.164 420.349 222.959 420.416C221.888 420.764 221.375 421.891 221.577 422.813C221.737 423.691 222.561 424.496 223.603 424.496C223.661 424.496 223.72 424.495 223.78 424.489C224.324 424.443 224.88 424.169 225.251 423.701C225.62 423.232 225.767 422.591 225.651 421.992C225.915 423.173 225.213 424.584 223.879 424.977C223.641 425.048 223.389 425.085 223.135 425.085" fill="#F4AC12"/>
<path d="M223.735 442.563C223.293 442.563 222.843 442.453 222.444 442.225C221.813 441.866 221.348 441.213 221.199 440.488C221.055 439.763 221.228 438.977 221.671 438.402C222.112 437.825 222.788 437.472 223.46 437.401C223.553 437.39 223.645 437.387 223.736 437.387C225 437.387 226.051 438.359 226.251 439.469C226.124 438.872 225.741 438.336 225.219 438.049C224.901 437.875 224.551 437.793 224.207 437.793C223.984 437.793 223.764 437.828 223.559 437.893C222.488 438.242 221.975 439.369 222.177 440.29C222.337 441.169 223.161 441.975 224.203 441.975C224.261 441.975 224.32 441.972 224.38 441.966C224.924 441.92 225.48 441.648 225.851 441.178C226.22 440.711 226.365 440.068 226.251 439.469C226.515 440.652 225.813 442.061 224.479 442.454C224.241 442.526 223.989 442.563 223.735 442.563" fill="#F4AC12"/>
<path d="M224.335 460.042C223.893 460.042 223.443 459.932 223.044 459.704C222.413 459.344 221.948 458.69 221.797 457.965C221.655 457.24 221.829 456.454 222.271 455.881C222.711 455.302 223.388 454.949 224.059 454.88C224.152 454.869 224.245 454.864 224.336 454.864C225.6 454.864 226.649 455.836 226.851 456.947C226.724 456.349 226.34 455.814 225.819 455.526C225.501 455.352 225.151 455.271 224.807 455.271C224.584 455.271 224.364 455.305 224.159 455.372C223.088 455.72 222.575 456.847 222.777 457.769C222.937 458.647 223.761 459.452 224.803 459.452C224.861 459.452 224.92 459.449 224.98 459.445C225.524 459.397 226.08 459.125 226.449 458.657C226.82 458.188 226.965 457.547 226.851 456.947C227.113 458.129 226.413 459.54 225.079 459.933C224.841 460.004 224.589 460.042 224.335 460.042" fill="#F4AC12"/>
<path d="M224.935 477.519C224.493 477.519 224.043 477.409 223.643 477.181C223.013 476.823 222.548 476.168 222.397 475.444C222.255 474.719 222.428 473.933 222.871 473.359C223.311 472.78 223.988 472.428 224.659 472.357C224.752 472.347 224.844 472.342 224.936 472.342C226.2 472.342 227.249 473.313 227.451 474.425C227.324 473.828 226.941 473.292 226.417 473.004C226.101 472.831 225.751 472.749 225.407 472.749C225.184 472.749 224.964 472.783 224.759 472.849C223.688 473.197 223.175 474.325 223.377 475.247C223.537 476.125 224.361 476.931 225.403 476.931C225.461 476.931 225.52 476.928 225.58 476.923C226.124 476.876 226.68 476.604 227.049 476.135C227.42 475.666 227.565 475.025 227.451 474.425C227.715 475.608 227.013 477.017 225.679 477.411C225.441 477.483 225.189 477.519 224.935 477.519" fill="#F4AC12"/>
<path d="M172.585 527.39L170.372 520.088L232.873 501.148L235.087 508.451L172.585 527.39" fill="#FABB1E"/>
<path d="M181.101 524.809L179.725 517.253L232.873 501.148L235.087 508.451L181.101 524.809" fill="#FCD361"/>
<path d="M199.093 520.826L195.659 510.025L202.931 507.713L206.365 518.513L199.093 520.826Z" fill="#FABB1E"/>
<path d="M172.071 538.092L155.943 468.253L107.263 479.793L131.233 547.857L172.071 538.092Z" fill="#FABB1E"/>
<path d="M182.872 534.54L172.071 538.092L155.943 468.253L171.479 471.951L182.872 534.54" fill="#FABB1E"/>
<path d="M172.071 538.092L155.943 468.253L171.479 471.951L182.872 534.54L172.071 538.092" fill="#D59814"/>
<path d="M242.267 504.8C242.267 509.376 238.557 513.085 233.98 513.085C229.404 513.085 225.695 509.376 225.695 504.8C225.695 500.224 229.404 496.513 233.98 496.513C238.557 496.513 242.267 500.224 242.267 504.8Z" fill="#FABB1E"/>
<path d="M379.485 527.33L317.025 508.257L319.252 500.959L381.715 520.031L379.485 527.33Z" fill="#FABB1E"/>
<path d="M370.976 524.731L317.025 508.257L319.252 500.959L372.367 517.176L370.976 524.731" fill="#FCD361"/>
<path d="M352.991 520.709L345.724 518.38L349.184 507.587L356.451 509.914L352.991 520.709Z" fill="#FABB1E"/>
<path d="M379.977 538.031L396.253 468.225L444.911 479.871L420.795 547.884L379.977 538.031Z" fill="#FABB1E"/>
<path d="M369.184 534.456L379.977 538.031L396.253 468.225L380.709 471.892L369.184 534.456Z" fill="#FABB1E"/>
<path d="M379.977 538.031L369.184 534.456L380.709 471.892L396.253 468.225L379.977 538.031" fill="#D59814"/>
<path d="M309.853 504.59C309.844 509.166 313.545 512.884 318.121 512.893C322.697 512.902 326.416 509.201 326.424 504.625C326.435 500.049 322.733 496.332 318.156 496.321C313.581 496.312 309.863 500.013 309.853 504.59" fill="#FABB1E"/>
<path d="M372.384 418.449C372.581 418.267 392.656 399.647 416.271 406.015C440.42 412.531 460.36 448.904 460.557 449.272L467.269 445.642C466.397 444.028 445.601 406.011 418.257 398.648C390.448 391.148 368.068 412.025 367.129 412.919L372.384 418.449Z" fill="#FABB1E"/>
<path d="M460.557 449.272C460.36 448.904 440.42 412.531 416.271 406.015C412.824 405.085 409.453 404.688 406.209 404.688C387.22 404.688 372.552 418.293 372.384 418.449L367.129 412.919C367.925 412.161 384.147 397.025 406.027 397.025C409.94 397.025 414.039 397.509 418.257 398.648C445.601 406.011 466.397 444.028 467.269 445.642L460.557 449.272" fill="#FCD361"/>
<path d="M451.657 485.89L466.12 478.254C464.731 475.625 463.023 471.109 462.773 467.031C462.452 461.745 464.549 459.887 466.863 458.665C471.931 455.989 474.953 457.05 477.02 458.266C479.917 459.977 482.863 463.477 485.315 468.121L499.776 460.488C495.817 452.992 490.959 447.505 485.331 444.184C479.716 440.876 470.632 438.185 459.228 444.205C450.34 448.897 445.803 457.356 446.452 468.024C446.963 476.417 450.567 483.82 451.657 485.89" fill="#FABB1E"/>
<path d="M375.433 392.971C378.568 390.804 381.777 388.765 384.996 386.744C388.208 384.711 391.473 382.767 394.74 380.823C398.021 378.907 401.305 376.993 404.64 375.168L409.644 372.435C411.339 371.565 413.008 370.657 414.723 369.824C413.161 370.917 411.557 371.939 409.976 372.999L405.16 376.052C401.948 378.085 398.683 380.029 395.417 381.971C392.135 383.885 388.851 385.799 385.515 387.623C382.187 389.46 378.848 391.279 375.433 392.971Z" fill="#333333"/>
<path d="M367.129 424.172C371.617 426.729 375.871 429.615 380.068 432.583C384.241 435.581 388.356 438.664 392.235 442.077C387.744 439.523 383.489 436.636 379.295 433.668C375.123 430.667 371.008 427.583 367.129 424.172Z" fill="#333333"/>
<path d="M374.5 420.335C377.964 421.387 381.375 422.575 384.777 423.784C388.185 424.98 391.555 426.273 394.925 427.565C398.284 428.889 401.64 430.215 404.961 431.635L409.94 433.772C411.581 434.529 413.24 435.244 414.867 436.04C413.131 435.525 411.424 434.932 409.703 434.381L404.589 432.591C401.183 431.395 397.811 430.103 394.443 428.808C391.085 427.483 387.727 426.159 384.408 424.736C381.083 423.328 377.764 421.899 374.5 420.335" fill="#333333"/>
<path d="M384.341 395.897C387.661 395.035 391.007 394.316 394.356 393.619C397.7 392.907 401.065 392.297 404.429 391.689C407.8 391.113 411.169 390.539 414.557 390.064L419.64 389.36C421.344 389.173 423.037 388.941 424.749 388.793C423.091 389.239 421.419 389.6 419.753 390.004L414.736 391.075C411.389 391.785 408.025 392.395 404.66 393.001C401.291 393.577 397.92 394.153 394.531 394.624C391.145 395.112 387.756 395.576 384.341 395.897" fill="#333333"/>
<path d="M304.331 416.657C304.893 413.959 305.799 411.331 306.969 408.824C308.141 406.321 309.576 403.919 311.376 401.784C313.181 399.672 315.403 397.809 318.076 396.779C320.749 395.781 323.809 395.789 326.491 396.86C329.204 397.917 331.344 400.199 332.497 402.819C333.095 404.128 333.472 405.532 333.625 406.968C333.76 408.401 333.703 409.893 333.132 411.324C332.841 412.028 332.387 412.739 331.659 413.212C331.307 413.457 330.876 413.597 330.453 413.663C330.036 413.723 329.611 413.704 329.125 413.536C328.233 413.157 327.787 412.439 327.404 411.792C327.061 411.12 326.796 410.433 326.616 409.737C325.867 406.955 325.791 404.123 325.923 401.325C326.32 395.751 327.784 390.175 330.788 385.377C332.305 383.007 334.205 380.825 336.569 379.229C338.903 377.624 341.635 376.52 344.423 376.2C345.796 375.867 347.213 375.899 348.615 375.831C349.316 375.756 350.015 375.925 350.713 375.963C351.409 376.056 352.12 376.043 352.797 376.244C355.567 376.74 358.172 377.853 360.603 379.199C363.021 380.592 365.173 382.381 367.139 384.323C369.087 386.283 370.859 388.429 372.283 390.791C369.129 386.291 365.069 382.385 360.281 379.768C357.873 378.516 355.327 377.489 352.645 377.072C351.992 376.891 351.307 376.921 350.636 376.847C349.963 376.828 349.292 376.673 348.617 376.764C347.271 376.863 345.917 376.856 344.604 377.209C341.916 377.588 339.423 378.668 337.228 380.175C335.024 381.684 333.244 383.756 331.815 386.023C328.984 390.608 327.599 396.024 327.252 401.405C327.101 404.095 327.169 406.844 327.841 409.399C328.163 410.62 328.74 411.997 329.581 412.381C329.689 412.391 329.76 412.449 329.891 412.453C330.023 412.444 330.161 412.472 330.285 412.441C330.537 412.399 330.785 412.331 330.997 412.179C331.435 411.904 331.781 411.416 332.015 410.856C332.481 409.724 332.568 408.38 332.449 407.084C332.319 405.781 331.985 404.489 331.447 403.288C330.392 400.891 328.521 398.819 326.097 397.803C323.687 396.78 320.863 396.696 318.363 397.567C315.847 398.469 313.675 400.204 311.863 402.213C308.236 406.279 305.787 411.365 304.331 416.657" fill="#333333"/>
<path d="M181.124 451.212C182.412 448.787 184.304 446.688 186.513 445.03C188.72 443.371 191.253 442.084 193.98 441.452C196.692 440.802 199.605 440.792 202.317 441.616C205.032 442.43 207.477 444.021 209.435 446.048C211.405 448.075 212.879 450.537 213.891 453.154C214.885 455.777 215.48 458.587 215.269 461.46C215.127 462.873 214.84 464.399 213.723 465.621C213.168 466.224 212.311 466.62 211.476 466.633C210.673 466.625 209.915 466.507 209.177 466.113C208.447 465.737 207.86 465.08 207.524 464.354C207.185 463.628 207.057 462.859 207.024 462.114C206.971 460.621 207.292 459.204 207.732 457.854C208.627 455.152 210.096 452.717 211.813 450.509C213.54 448.305 215.572 446.342 217.849 444.709C222.367 441.428 228.12 439.607 233.735 440.34C236.505 440.716 239.255 441.514 241.68 442.928C244.127 444.295 246.248 446.192 247.977 448.36C249.705 450.537 251.052 452.984 252.089 455.533C253.127 458.084 253.892 460.747 254.268 463.464C253.148 458.121 250.951 452.932 247.451 448.79C245.719 446.723 243.629 444.947 241.257 443.695C238.907 442.396 236.269 441.7 233.615 441.402C228.281 440.823 222.871 442.524 218.568 445.707C214.272 448.868 210.755 453.28 208.977 458.271C208.559 459.513 208.267 460.816 208.305 462.068C208.335 463.313 208.772 464.508 209.771 465.012C210.24 465.283 210.879 465.389 211.437 465.397C211.977 465.384 212.457 465.168 212.841 464.769C213.62 463.956 213.955 462.628 214.072 461.354C214.281 458.749 213.743 456.056 212.811 453.565C211.865 451.069 210.464 448.742 208.651 446.795C206.843 444.849 204.563 443.332 202.039 442.507C199.52 441.668 196.759 441.599 194.136 442.156C188.885 443.271 184.021 446.553 181.124 451.212" fill="#333333"/>
<path d="M119.439 129.217C119.289 123.731 118.124 118.207 115.57 113.392C114.291 111.009 112.596 108.807 110.369 107.331C108.147 105.888 105.386 105.295 102.801 105.713C100.205 106.121 97.8932 107.688 96.2964 109.764C95.4869 110.801 94.8536 111.976 94.4167 113.211C93.9927 114.44 93.7552 115.765 93.9391 116.977C94.0312 117.577 94.2516 118.133 94.6104 118.504C94.7812 118.703 95.0047 118.828 95.2396 118.928C95.3531 118.988 95.4948 118.995 95.6197 119.035C95.7473 119.063 95.8307 119.023 95.938 119.039C96.8464 118.867 97.7364 117.667 98.3391 116.559C99.6011 114.239 100.325 111.583 100.819 108.936C101.767 103.628 101.714 98.0373 100.059 92.9093C99.2136 90.3666 97.9792 87.9306 96.1979 85.9399C94.4265 83.9519 92.2636 82.3066 89.7432 81.2986C88.5527 80.6426 87.236 80.3253 85.9527 79.9079C85.3183 79.6599 84.6317 79.6479 83.9729 79.5066C83.3047 79.4186 82.6459 79.2252 81.9661 79.2466C79.2645 79.0106 76.5459 79.4013 73.9084 80.0413C68.6355 81.4399 63.7599 84.2639 59.624 87.8812C61.5697 85.9279 63.8027 84.2666 66.1631 82.8279C68.5355 81.4106 71.0521 80.1879 73.7323 79.4106C76.414 78.6853 79.2099 78.2266 82.0183 78.4053C82.7235 78.3706 83.4109 78.5533 84.1073 78.6293C84.7959 78.7599 85.5136 78.7613 86.1787 79.0013C87.5229 79.4026 88.9068 79.7106 90.1593 80.3613C92.7917 81.3373 95.1812 83.0626 97.064 85.1773C98.9787 87.2906 100.304 89.8639 101.211 92.5279C102.982 97.9026 103.075 103.668 102.129 109.176C101.59 111.925 100.84 114.656 99.4484 117.179C99.1073 117.811 98.6864 118.416 98.1932 118.987C97.6672 119.523 97.062 120.113 96.1047 120.269C95.5932 120.316 95.1751 120.232 94.7855 120.075C94.3901 119.911 94.0052 119.672 93.7229 119.349C93.1292 118.716 92.8563 117.917 92.7421 117.165C92.5292 115.64 92.8297 114.177 93.3027 112.817C93.7948 111.46 94.4948 110.187 95.3885 109.056C97.1344 106.788 99.7568 105.084 102.643 104.704C105.503 104.304 108.477 105.028 110.835 106.633C113.185 108.271 114.897 110.611 116.146 113.093C117.385 115.596 118.205 118.271 118.745 120.981C119.284 123.695 119.536 126.464 119.439 129.217" fill="#333333"/>
<path d="M413.861 198.769C408.491 197.635 402.848 197.477 397.571 198.837C394.955 199.527 392.417 200.66 390.463 202.481C388.54 204.305 387.32 206.852 387.124 209.463C386.915 212.083 387.899 214.696 389.545 216.733C390.364 217.763 391.36 218.652 392.457 219.365C393.555 220.064 394.788 220.605 396.009 220.708C396.613 220.759 397.205 220.673 397.651 220.412C397.883 220.292 398.057 220.104 398.209 219.899L398.403 219.555L398.48 219.245C398.524 218.321 397.565 217.177 396.628 216.332C394.667 214.563 392.253 213.241 389.796 212.141C384.855 209.981 379.405 208.728 374.032 209.141C371.363 209.371 368.707 210.001 366.355 211.269C364.009 212.528 361.905 214.248 360.336 216.463C359.419 217.468 358.805 218.675 358.099 219.825C357.709 220.384 357.539 221.049 357.248 221.657C357.007 222.285 356.664 222.881 356.525 223.547C355.665 226.119 355.412 228.853 355.419 231.568C355.548 237.021 357.156 242.421 359.709 247.287C358.263 244.939 357.169 242.38 356.32 239.749C355.497 237.113 354.895 234.38 354.765 231.592C354.685 228.815 354.891 225.989 355.72 223.3C355.852 222.607 356.189 221.98 356.425 221.32C356.713 220.681 356.883 219.984 357.271 219.393C357.973 218.18 358.596 216.905 359.521 215.839C361.085 213.508 363.32 211.587 365.816 210.249C368.317 208.881 371.129 208.193 373.931 207.932C379.572 207.464 385.197 208.72 390.333 210.924C392.881 212.089 395.363 213.456 397.491 215.397C398.027 215.877 398.516 216.428 398.956 217.04C399.355 217.677 399.787 218.404 399.715 219.371C399.643 219.879 399.463 220.265 399.219 220.609C398.967 220.953 398.644 221.272 398.265 221.473C397.512 221.903 396.671 221.98 395.913 221.916C394.379 221.767 393.028 221.135 391.815 220.356C390.609 219.56 389.535 218.584 388.645 217.451C386.845 215.224 385.801 212.277 386.105 209.381C386.384 206.507 387.781 203.784 389.892 201.865C392.033 199.963 394.708 198.843 397.415 198.208C400.137 197.587 402.928 197.415 405.691 197.521C408.455 197.631 411.205 198.031 413.861 198.769" fill="#333333"/>
<path d="M331.313 112.503C330.403 109.343 330.279 105.965 330.793 102.701C331.304 99.44 332.409 96.2293 334.215 93.4186C335.993 90.6039 338.475 88.1719 341.476 86.6213C344.471 85.0586 347.88 84.3799 351.239 84.4826C354.605 84.5746 357.915 85.4453 360.96 86.8346C363.993 88.2453 366.844 90.1493 369.051 92.768C370.103 94.0866 371.119 95.6226 371.181 97.5546C371.207 98.5066 370.82 99.5253 370.137 100.216C369.46 100.864 368.72 101.391 367.788 101.661C366.871 101.943 365.851 101.873 364.976 101.54C364.097 101.209 363.359 100.667 362.716 100.067C361.437 98.848 360.531 97.3733 359.784 95.8586C358.3 92.8106 357.519 89.5093 357.141 86.1919C356.775 82.8706 356.869 79.5 357.448 76.204C358.561 69.6346 361.949 63.288 367.343 59.2253C370.017 57.2293 373.027 55.6133 376.273 54.7893C379.5 53.9093 382.895 53.7519 386.185 54.1533C389.481 54.5613 392.683 55.5173 395.707 56.8226C398.732 58.1293 401.621 59.7573 404.227 61.7573C398.811 58.0933 392.587 55.4693 386.111 54.8293C382.887 54.5013 379.599 54.7213 376.507 55.6333C373.393 56.4866 370.536 58.0986 368 60.068C365.493 62.076 363.361 64.5426 361.801 67.3493C360.229 70.1493 359.201 73.2439 358.659 76.4159C357.621 82.7453 358.291 89.4893 360.967 95.2853C361.655 96.7106 362.5 98.08 363.6 99.1373C364.68 100.192 366.105 100.881 367.44 100.459C368.096 100.288 368.743 99.8346 369.245 99.3586C369.717 98.8746 369.963 98.2493 369.956 97.5586C369.937 96.1586 369.093 94.7306 368.121 93.5306C366.101 91.104 363.372 89.2426 360.475 87.8853C357.564 86.5346 354.399 85.7093 351.199 85.564C348.005 85.4173 344.764 86.0319 341.9 87.4519C339.028 88.8586 336.597 91.1253 334.817 93.8106C331.257 99.1893 329.863 106.093 331.313 112.503" fill="#333333"/>
<path d="M179.709 458.405C178.883 461.031 176.088 462.488 173.467 461.661C170.844 460.835 169.388 458.04 170.215 455.414C171.041 452.792 173.835 451.336 176.461 452.164C179.08 452.989 180.536 455.783 179.709 458.405V458.405ZM176.668 451.502C173.679 450.56 170.496 452.221 169.555 455.207C168.613 458.197 170.273 461.377 173.26 462.319C176.245 463.26 179.425 461.602 180.367 458.614C181.308 455.629 179.652 452.444 176.668 451.502ZM179.709 458.405C178.883 461.031 176.088 462.488 173.467 461.661C170.844 460.835 169.388 458.04 170.215 455.414C171.041 452.792 173.835 451.336 176.461 452.164C179.08 452.989 180.536 455.783 179.709 458.405V458.405ZM176.668 451.502C173.679 450.56 170.496 452.221 169.555 455.207C168.613 458.197 170.273 461.377 173.26 462.319C176.245 463.26 179.425 461.602 180.367 458.614C181.308 455.629 179.652 452.444 176.668 451.502ZM179.709 458.405C178.883 461.031 176.088 462.488 173.467 461.661C170.844 460.835 169.388 458.04 170.215 455.414C171.041 452.792 173.835 451.336 176.461 452.164C179.08 452.989 180.536 455.783 179.709 458.405V458.405ZM180.367 458.614C181.308 455.629 179.652 452.444 176.668 451.502C173.679 450.56 170.496 452.221 169.555 455.207C168.613 458.197 170.273 461.377 173.26 462.319C176.245 463.26 179.425 461.602 180.367 458.614V458.614ZM181.209 458.878C180.123 462.325 176.439 464.245 172.995 463.161C169.549 462.075 167.629 458.39 168.716 454.944C169.801 451.496 173.489 449.578 176.933 450.665C180.375 451.749 182.295 455.435 181.209 458.878V458.878ZM178.557 445.513C172.257 443.53 165.549 447.03 163.564 453.32C161.583 459.613 165.075 466.326 171.371 468.308C177.663 470.289 184.375 466.795 186.357 460.501C188.341 454.211 184.848 447.495 178.557 445.513ZM179.709 458.405C178.883 461.031 176.088 462.488 173.467 461.661C170.844 460.835 169.388 458.04 170.215 455.414C171.041 452.792 173.835 451.336 176.461 452.164C179.08 452.989 180.536 455.783 179.709 458.405V458.405ZM176.668 451.502C173.679 450.56 170.496 452.221 169.555 455.207C168.613 458.197 170.273 461.377 173.26 462.319C176.245 463.26 179.425 461.602 180.367 458.614C181.308 455.629 179.652 452.444 176.668 451.502V451.502ZM179.709 458.405C178.883 461.031 176.088 462.488 173.467 461.661C170.844 460.835 169.388 458.04 170.215 455.414C171.041 452.792 173.835 451.336 176.461 452.164C179.08 452.989 180.536 455.783 179.709 458.405V458.405ZM176.668 451.502C173.679 450.56 170.496 452.221 169.555 455.207C168.613 458.197 170.273 461.377 173.26 462.319C176.245 463.26 179.425 461.602 180.367 458.614C181.308 455.629 179.652 452.444 176.668 451.502V451.502ZM179.709 458.405C178.883 461.031 176.088 462.488 173.467 461.661C170.844 460.835 169.388 458.04 170.215 455.414C171.041 452.792 173.835 451.336 176.461 452.164C179.08 452.989 180.536 455.783 179.709 458.405V458.405ZM176.668 451.502C173.679 450.56 170.496 452.221 169.555 455.207C168.613 458.197 170.273 461.377 173.26 462.319C176.245 463.26 179.425 461.602 180.367 458.614C181.308 455.629 179.652 452.444 176.668 451.502" fill="#333333"/>
<path d="M173.711 468.525L169.328 467.144L168.593 470.323L172.491 471.552L173.711 468.525" fill="#333333"/>
<path d="M165.835 464.42L163.712 460.345L160.945 462.072L162.833 465.697L165.835 464.42Z" fill="#333333"/>
<path d="M163.168 455.948L164.549 451.565L161.371 450.832L160.141 454.728L163.168 455.948" fill="#333333"/>
<path d="M167.273 448.072L171.348 445.949L169.62 443.183L165.996 445.071L167.273 448.072" fill="#333333"/>
<path d="M175.745 445.405L180.127 446.787L180.863 443.609L176.964 442.381L175.745 445.405" fill="#333333"/>
<path d="M183.62 449.511L185.743 453.587L188.511 451.859L186.623 448.233L183.62 449.511Z" fill="#333333"/>
<path d="M186.287 457.983L184.907 462.365L188.085 463.1L189.313 459.202L186.287 457.983Z" fill="#333333"/>
<path d="M182.183 465.859L178.108 467.981L179.835 470.748L183.46 468.861L182.183 465.859" fill="#333333"/>
<path d="M389.916 407.605C387.105 411.391 381.765 412.18 377.983 409.373C374.197 406.564 373.408 401.224 376.217 397.439C379.024 393.656 384.364 392.865 388.149 395.675C391.932 398.483 392.723 403.823 389.916 407.605ZM397.733 413.407C403.744 405.308 402.049 393.868 393.952 387.857C385.851 381.844 374.409 383.539 368.4 391.636C362.387 399.737 364.081 411.179 372.181 417.191C380.28 423.201 391.721 421.508 397.733 413.407" fill="#333333"/>
<path d="M375.452 418.673L369.812 414.488L367.161 418.712L372.177 422.435L375.452 418.673" fill="#333333"/>
<path d="M366.128 408.807L365.099 401.859L360.239 402.971L361.152 409.151L366.128 408.807" fill="#333333"/>
<path d="M366.512 395.235L370.696 389.596L366.473 386.945L362.751 391.96L366.512 395.235" fill="#333333"/>
<path d="M376.377 385.911L383.325 384.883L382.213 380.021L376.033 380.936L376.377 385.911" fill="#333333"/>
<path d="M389.949 386.295L395.588 390.48L398.24 386.257L393.224 382.533L389.949 386.295Z" fill="#333333"/>
<path d="M399.273 396.163L400.303 403.111L405.163 401.999L404.249 395.819L399.273 396.163" fill="#333333"/>
<path d="M398.891 409.732L394.704 415.373L398.928 418.024L402.651 413.007L398.891 409.732Z" fill="#333333"/>
<path d="M389.023 419.057L382.076 420.085L383.188 424.947L389.367 424.032L389.023 419.057" fill="#333333"/>
<path d="M383.879 400.893C384.759 401.548 384.941 402.784 384.289 403.664C383.639 404.541 382.4 404.727 381.52 404.073C380.643 403.424 380.46 402.18 381.109 401.304C381.763 400.424 383.003 400.244 383.879 400.893ZM376.524 403.397L380.404 408.291L386.583 407.375L388.875 401.569L384.999 396.679L378.819 397.591L376.524 403.397Z" fill="#333333"/>
<path d="M414.088 63.7826C413.364 66.0786 410.92 67.3533 408.625 66.6293C406.331 65.9066 405.056 63.4613 405.78 61.1653C406.504 58.8693 408.948 57.596 411.245 58.32C413.537 59.0426 414.811 61.4866 414.088 63.7826V63.7826ZM411.425 57.7413C408.811 56.9173 406.027 58.3693 405.203 60.9813C404.377 63.5986 405.831 66.3813 408.445 67.2053C411.057 68.0293 413.84 66.5786 414.664 63.964C415.487 61.352 414.037 58.5653 411.425 57.7413ZM414.088 63.7826C413.364 66.0786 410.92 67.3533 408.625 66.6293C406.331 65.9066 405.056 63.4613 405.78 61.1653C406.504 58.8693 408.948 57.596 411.245 58.32C413.537 59.0426 414.811 61.4866 414.088 63.7826V63.7826ZM411.425 57.7413C408.811 56.9173 406.027 58.3693 405.203 60.9813C404.377 63.5986 405.831 66.3813 408.445 67.2053C411.057 68.0293 413.84 66.5786 414.664 63.964C415.487 61.352 414.037 58.5653 411.425 57.7413ZM414.088 63.7826C413.364 66.0786 410.92 67.3533 408.625 66.6293C406.331 65.9066 405.056 63.4613 405.78 61.1653C406.504 58.8693 408.948 57.596 411.245 58.32C413.537 59.0426 414.811 61.4866 414.088 63.7826V63.7826ZM414.664 63.964C415.487 61.352 414.037 58.5653 411.425 57.7413C408.811 56.9173 406.027 58.3693 405.203 60.9813C404.377 63.5986 405.831 66.3813 408.445 67.2053C411.057 68.0293 413.84 66.5786 414.664 63.964ZM415.401 64.1946C414.451 67.2106 411.227 68.892 408.212 67.9426C405.197 66.992 403.517 63.768 404.468 60.752C405.419 57.7346 408.644 56.0573 411.659 57.0066C414.671 57.9573 416.351 61.1813 415.401 64.1946ZM413.08 52.5C407.567 50.764 401.697 53.8266 399.961 59.3306C398.227 64.8373 401.283 70.7106 406.792 72.4466C412.297 74.1813 418.171 71.1226 419.905 65.6159C421.643 60.1106 418.585 54.2346 413.08 52.5ZM414.088 63.7826C413.364 66.0786 410.92 67.3533 408.625 66.6293C406.331 65.9066 405.056 63.4613 405.78 61.1653C406.504 58.8693 408.948 57.596 411.245 58.32C413.537 59.0426 414.811 61.4866 414.088 63.7826V63.7826ZM411.425 57.7413C408.811 56.9173 406.027 58.3693 405.203 60.9813C404.377 63.5986 405.831 66.3813 408.445 67.2053C411.057 68.0293 413.84 66.5786 414.664 63.964C415.487 61.352 414.037 58.5653 411.425 57.7413ZM414.088 63.7826C413.364 66.0786 410.92 67.3533 408.625 66.6293C406.331 65.9066 405.056 63.4613 405.78 61.1653C406.504 58.8693 408.948 57.596 411.245 58.32C413.537 59.0426 414.811 61.4866 414.088 63.7826V63.7826ZM411.425 57.7413C408.811 56.9173 406.027 58.3693 405.203 60.9813C404.377 63.5986 405.831 66.3813 408.445 67.2053C411.057 68.0293 413.84 66.5786 414.664 63.964C415.487 61.352 414.037 58.5653 411.425 57.7413ZM414.088 63.7826C413.364 66.0786 410.92 67.3533 408.625 66.6293C406.331 65.9066 405.056 63.4613 405.78 61.1653C406.504 58.8693 408.948 57.596 411.245 58.32C413.537 59.0426 414.811 61.4866 414.088 63.7826V63.7826ZM411.425 57.7413C408.811 56.9173 406.027 58.3693 405.203 60.9813C404.377 63.5986 405.831 66.3813 408.445 67.2053C411.057 68.0293 413.84 66.5786 414.664 63.964C415.487 61.352 414.037 58.5653 411.425 57.7413Z" fill="#333333"/>
<path d="M408.839 72.6373L405.004 71.428L404.361 74.2093L407.772 75.2853L408.839 72.6373" fill="#333333"/>
<path d="M401.947 69.044L400.089 65.4786L397.668 66.9906L399.32 70.1626L401.947 69.044" fill="#333333"/>
<path d="M399.613 61.632L400.821 57.7973L398.04 57.1533L396.967 60.564L399.613 61.632" fill="#333333"/>
<path d="M403.205 54.74L406.772 52.8826L405.26 50.4613L402.088 52.1133L403.205 54.74Z" fill="#333333"/>
<path d="M410.619 52.4066L414.453 53.6146L415.096 50.8333L411.687 49.7586L410.619 52.4066Z" fill="#333333"/>
<path d="M417.511 55.9986L419.367 59.5639L421.789 58.0519L420.139 54.8813L417.511 55.9986" fill="#333333"/>
<path d="M419.844 63.4107L418.636 67.2466L421.417 67.8893L422.492 64.4786L419.844 63.4107Z" fill="#333333"/>
<path d="M416.253 70.304L412.687 72.16L414.197 74.5826L417.369 72.9306L416.253 70.304" fill="#333333"/>
<path d="M363.135 254.269C362.411 256.565 359.965 257.84 357.671 257.116C355.376 256.393 354.101 253.948 354.825 251.652C355.549 249.357 357.993 248.083 360.291 248.807C362.584 249.529 363.857 251.973 363.135 254.269V254.269ZM360.472 248.228C357.857 247.404 355.072 248.856 354.248 251.468C353.423 254.085 354.876 256.868 357.491 257.693C360.103 258.516 362.885 257.065 363.709 254.451C364.532 251.839 363.084 249.052 360.472 248.228ZM363.135 254.269C362.411 256.565 359.965 257.84 357.671 257.116C355.376 256.393 354.101 253.948 354.825 251.652C355.549 249.357 357.993 248.083 360.291 248.807C362.584 249.529 363.857 251.973 363.135 254.269V254.269ZM360.472 248.228C357.857 247.404 355.072 248.856 354.248 251.468C353.423 254.085 354.876 256.868 357.491 257.693C360.103 258.516 362.885 257.065 363.709 254.451C364.532 251.839 363.084 249.052 360.472 248.228ZM363.135 254.269C362.411 256.565 359.965 257.84 357.671 257.116C355.376 256.393 354.101 253.948 354.825 251.652C355.549 249.357 357.993 248.083 360.291 248.807C362.584 249.529 363.857 251.973 363.135 254.269V254.269ZM363.709 254.451C364.532 251.839 363.084 249.052 360.472 248.228C357.857 247.404 355.072 248.856 354.248 251.468C353.423 254.085 354.876 256.868 357.491 257.693C360.103 258.516 362.885 257.065 363.709 254.451ZM364.447 254.681C363.496 257.699 360.271 259.379 357.257 258.429C354.244 257.479 352.563 254.255 353.513 251.239C354.464 248.223 357.691 246.544 360.704 247.495C363.716 248.444 365.396 251.668 364.447 254.681V254.681ZM362.125 242.987C356.612 241.252 350.743 244.313 349.007 249.817C347.271 255.325 350.327 261.199 355.837 262.933C361.343 264.668 367.216 261.609 368.951 256.103C370.688 250.597 367.629 244.721 362.125 242.987ZM363.135 254.269C362.411 256.565 359.965 257.84 357.671 257.116C355.376 256.393 354.101 253.948 354.825 251.652C355.549 249.357 357.993 248.083 360.291 248.807C362.584 249.529 363.857 251.973 363.135 254.269V254.269ZM360.472 248.228C357.857 247.404 355.072 248.856 354.248 251.468C353.423 254.085 354.876 256.868 357.491 257.693C360.103 258.516 362.885 257.065 363.709 254.451C364.532 251.839 363.084 249.052 360.472 248.228ZM363.135 254.269C362.411 256.565 359.965 257.84 357.671 257.116C355.376 256.393 354.101 253.948 354.825 251.652C355.549 249.357 357.993 248.083 360.291 248.807C362.584 249.529 363.857 251.973 363.135 254.269V254.269ZM360.472 248.228C357.857 247.404 355.072 248.856 354.248 251.468C353.423 254.085 354.876 256.868 357.491 257.693C360.103 258.516 362.885 257.065 363.709 254.451C364.532 251.839 363.084 249.052 360.472 248.228ZM363.135 254.269C362.411 256.565 359.965 257.84 357.671 257.116C355.376 256.393 354.101 253.948 354.825 251.652C355.549 249.357 357.993 248.083 360.291 248.807C362.584 249.529 363.857 251.973 363.135 254.269V254.269ZM360.472 248.228C357.857 247.404 355.072 248.856 354.248 251.468C353.423 254.085 354.876 256.868 357.491 257.693C360.103 258.516 362.885 257.065 363.709 254.451C364.532 251.839 363.084 249.052 360.472 248.228Z" fill="#333333"/>
<path d="M357.884 263.124L354.049 261.916L353.407 264.696L356.817 265.771L357.884 263.124" fill="#333333"/>
<path d="M350.992 259.532L349.136 255.965L346.713 257.477L348.365 260.649L350.992 259.532" fill="#333333"/>
<path d="M348.659 252.119L349.867 248.284L347.085 247.64L346.012 251.051L348.659 252.119" fill="#333333"/>
<path d="M352.252 245.227L355.816 243.369L354.305 240.948L351.135 242.6L352.252 245.227Z" fill="#333333"/>
<path d="M359.664 242.893L363.499 244.101L364.141 241.32L360.732 240.245L359.664 242.893Z" fill="#333333"/>
<path d="M366.556 246.485L368.413 250.052L370.835 248.539L369.184 245.368L366.556 246.485" fill="#333333"/>
<path d="M368.889 253.899L367.681 257.733L370.463 258.376L371.537 254.965L368.889 253.899" fill="#333333"/>
<path d="M365.299 260.791L361.732 262.647L363.244 265.069L366.416 263.417L365.299 260.791" fill="#333333"/>
<path d="M60.7188 96.28C59.7579 100.225 55.7864 102.64 51.8459 101.68C47.9016 100.719 45.4864 96.7467 46.4469 92.804C47.4068 88.8627 51.3792 86.4467 55.3229 87.408C59.2631 88.368 61.6792 92.34 60.7188 96.28ZM68.8636 98.2653C70.9188 89.828 65.7443 81.3187 57.3073 79.264C48.8667 77.2067 40.3584 82.3827 38.3021 90.8187C36.2464 99.2587 41.4208 107.768 49.8615 109.824C58.2984 111.88 66.8068 106.705 68.8636 98.2653" fill="#333333"/>
<path d="M52.9521 109.905L47.076 108.473L46.3875 112.711L51.614 113.985L52.9521 109.905" fill="#333333"/>
<path d="M42.2505 105.2L39.1084 100.033L35.6245 102.544L38.4193 107.14L42.2505 105.2" fill="#333333"/>
<path d="M38.0099 94.3066L39.4417 88.4306L35.2031 87.7426L33.9297 92.9679L38.0099 94.3066" fill="#333333"/>
<path d="M42.714 83.604L47.8817 80.4626L45.3719 76.9786L40.7755 79.7733L42.714 83.604" fill="#333333"/>
<path d="M53.6084 79.364L59.4844 80.796L60.1724 76.5586L54.9469 75.2853L53.6084 79.364" fill="#333333"/>
<path d="M64.3099 84.0693L67.4527 89.236L70.9364 86.7253L68.1412 82.1307L64.3099 84.0693Z" fill="#333333"/>
<path d="M68.5511 94.9627L67.1193 100.839L71.3573 101.528L72.6307 96.3013L68.5511 94.9627" fill="#333333"/>
<path d="M63.8459 105.665L58.6792 108.807L61.1891 112.291L65.7844 109.496L63.8459 105.665" fill="#333333"/>
<path d="M53.6828 92.9786C54.5995 93.2026 55.1588 94.1226 54.9355 95.0386C54.7131 95.952 53.7921 96.5146 52.8755 96.292C51.9625 96.0693 51.4005 95.1453 51.6229 94.232C51.8464 93.3146 52.7697 92.756 53.6828 92.9786ZM48.6864 97.428L53.4031 100.011L57.9969 97.2146L57.8719 91.8426L53.1593 89.26L48.5625 92.0533L48.6864 97.428Z" fill="#333333"/>
<path d="M424.288 260.859C420.7 255.396 418.685 249.255 418.685 242.761C418.685 219.833 443.863 201.243 474.901 201.243C505.94 201.243 531.093 219.833 531.093 242.761C531.093 265.688 505.94 284.279 474.901 284.279C459.851 284.279 446.207 279.917 436.127 272.791L416.761 277.715L424.288 260.859Z" fill="white"/>
<path d="M424.288 260.859L416.896 277.775L416.727 277.573L436.051 272.497L436.184 272.461L436.303 272.543C446.272 279.427 458.299 283.008 470.335 283.652C476.365 284.025 482.432 283.531 488.359 282.46C494.277 281.36 500.109 279.601 505.501 276.911C510.896 274.252 515.921 270.799 520.096 266.493C524.263 262.203 527.557 257.012 529.221 251.277C530.936 245.56 530.773 239.352 529.001 233.683C527.241 227.985 523.871 222.851 519.649 218.619C515.419 214.372 510.357 210.98 504.937 208.383C503.556 207.788 502.215 207.093 500.8 206.58L496.545 205.063L492.184 203.876C490.729 203.484 489.231 203.28 487.755 202.972C481.815 201.965 475.755 201.599 469.729 201.984C463.711 202.412 457.737 203.507 451.995 205.368C446.252 207.217 440.747 209.871 435.849 213.404C430.951 216.915 426.637 221.301 423.525 226.477C420.359 231.629 418.777 237.688 418.847 243.739C418.972 249.801 420.981 255.764 424.288 260.859V260.859ZM424.288 260.859C420.904 255.817 418.783 249.864 418.56 243.748C418.393 237.645 419.896 231.471 423.029 226.189C426.093 220.868 430.461 216.384 435.395 212.776C440.333 209.147 445.895 206.408 451.697 204.48C457.504 202.541 463.553 201.377 469.655 200.891C475.765 200.444 481.919 200.823 487.957 201.82C489.456 202.128 490.979 202.333 492.461 202.727L496.901 203.921L501.239 205.453C502.681 205.973 504.051 206.676 505.461 207.279C510.999 209.912 516.189 213.363 520.553 217.719C524.908 222.057 528.419 227.359 530.271 233.291C532.12 239.2 532.253 245.689 530.456 251.633C528.705 257.597 525.275 262.953 520.979 267.349C516.675 271.763 511.525 275.275 506.017 277.968C500.511 280.693 494.577 282.468 488.56 283.561C482.532 284.596 476.381 285.04 470.277 284.609C464.175 284.224 458.111 283.108 452.304 281.191C446.501 279.28 440.919 276.612 435.951 273.039L436.2 273.085L416.799 277.856L416.504 277.928L416.629 277.655L424.288 260.859" fill="#333333"/>
<path d="M445.983 249.559V252.645H433.404V234.529H445.753V237.616H436.925V241.98H444.555V244.837H436.925V249.559H445.983" fill="#333333"/>
<path d="M452.261 243.485H456.676C456.999 243.485 457.301 243.409 457.581 243.256C457.863 243.103 458.104 242.895 458.308 242.631C458.513 242.367 458.675 242.057 458.793 241.699C458.913 241.341 458.973 240.959 458.973 240.551C458.973 240.125 458.904 239.735 458.768 239.377C458.632 239.02 458.449 238.709 458.219 238.447C457.989 238.183 457.725 237.977 457.428 237.833C457.131 237.689 456.828 237.616 456.523 237.616H452.261V243.485ZM448.74 252.645V234.529H456.752C457.585 234.529 458.356 234.704 459.061 235.052C459.767 235.401 460.375 235.86 460.885 236.429C461.396 237 461.796 237.647 462.085 238.369C462.373 239.092 462.519 239.82 462.519 240.551C462.519 241.724 462.225 242.792 461.639 243.753C461.052 244.715 460.256 245.408 459.252 245.833L463.387 252.645H459.431L455.732 246.573H452.261V252.645H448.74" fill="#333333"/>
<path d="M469.229 243.485H473.643C473.967 243.485 474.268 243.409 474.548 243.256C474.829 243.103 475.072 242.895 475.276 242.631C475.48 242.367 475.641 242.057 475.76 241.699C475.88 241.341 475.94 240.959 475.94 240.551C475.94 240.125 475.871 239.735 475.736 239.377C475.599 239.02 475.417 238.709 475.187 238.447C474.957 238.183 474.693 237.977 474.396 237.833C474.097 237.689 473.796 237.616 473.489 237.616H469.229V243.485ZM465.707 252.645V234.529H473.72C474.553 234.529 475.323 234.704 476.029 235.052C476.735 235.401 477.343 235.86 477.853 236.429C478.363 237 478.763 237.647 479.052 238.369C479.341 239.092 479.485 239.82 479.485 240.551C479.485 241.724 479.193 242.792 478.605 243.753C478.02 244.715 477.224 245.408 476.22 245.833L480.355 252.645H476.399L472.699 246.573H469.229V252.645H465.707" fill="#333333"/>
<path d="M485.151 243.587C485.151 244.369 485.269 245.127 485.508 245.859C485.747 246.589 486.091 247.236 486.541 247.797C486.992 248.359 487.545 248.809 488.2 249.149C488.856 249.491 489.599 249.66 490.433 249.66C491.284 249.66 492.036 249.487 492.692 249.137C493.347 248.789 493.899 248.325 494.351 247.747C494.801 247.168 495.14 246.517 495.371 245.795C495.6 245.072 495.715 244.336 495.715 243.587C495.715 242.805 495.591 242.048 495.345 241.316C495.097 240.585 494.751 239.939 494.3 239.377C493.848 238.816 493.296 238.369 492.64 238.037C491.985 237.705 491.251 237.54 490.433 237.54C489.583 237.54 488.825 237.715 488.163 238.063C487.499 238.412 486.945 238.871 486.504 239.441C486.061 240.011 485.725 240.657 485.496 241.38C485.265 242.104 485.151 242.839 485.151 243.587V243.587ZM490.408 252.773C489.081 252.773 487.877 252.515 486.797 251.996C485.716 251.476 484.789 250.788 484.016 249.928C483.241 249.069 482.641 248.087 482.216 246.981C481.792 245.876 481.58 244.744 481.58 243.587C481.58 242.38 481.805 241.224 482.255 240.117C482.705 239.012 483.327 238.033 484.117 237.183C484.909 236.332 485.849 235.656 486.937 235.155C488.027 234.652 489.208 234.401 490.484 234.401C491.795 234.401 492.988 234.669 494.069 235.205C495.149 235.741 496.073 236.443 496.837 237.311C497.603 238.177 498.199 239.165 498.624 240.271C499.049 241.376 499.261 242.499 499.261 243.639C499.261 244.847 499.04 245.999 498.599 247.096C498.156 248.193 497.543 249.163 496.761 250.004C495.979 250.847 495.043 251.519 493.955 252.021C492.865 252.523 491.684 252.773 490.408 252.773" fill="#333333"/>
<path d="M505.488 243.485H509.903C510.225 243.485 510.528 243.409 510.807 243.256C511.088 243.103 511.331 242.895 511.535 242.631C511.74 242.367 511.901 242.057 512.02 241.699C512.14 241.341 512.199 240.959 512.199 240.551C512.199 240.125 512.131 239.735 511.995 239.377C511.859 239.02 511.676 238.709 511.445 238.447C511.216 238.183 510.952 237.977 510.655 237.833C510.357 237.689 510.055 237.616 509.749 237.616H505.488V243.485ZM501.967 252.645V234.529H509.979C510.812 234.529 511.583 234.704 512.288 235.052C512.993 235.401 513.601 235.86 514.112 236.429C514.623 237 515.023 237.647 515.311 238.369C515.6 239.092 515.745 239.82 515.745 240.551C515.745 241.724 515.452 242.792 514.864 243.753C514.279 244.715 513.483 245.408 512.479 245.833L516.613 252.645H512.657L508.959 246.573H505.488V252.645H501.967" fill="#333333"/>
</svg>
