<svg width="816" height="535" viewBox="0 0 816 535" fill="none" xmlns="http://www.w3.org/2000/svg">
<path d="M801.771 126.055L789.011 187.847L780.803 179.839L766.825 189.801L756.149 176.547L732.195 193.96L711.737 159.732L688.905 173.103L679.856 160.619L650.865 176.952L642.143 158.281L662.463 59.8667L771.401 82.3587L801.771 126.055" fill="#E7E8E5"/>
<path d="M771.401 82.36L801.773 126.049L763.992 118.249L771.401 82.36Z" fill="#D4D6D3"/>
<path d="M786.297 200.196L767.581 290.856L620.857 260.569L639.429 170.632L648.152 189.303L677.14 172.969L686.191 185.453L709.024 172.083L729.48 206.311L753.435 188.896L764.112 202.151L778.088 192.189L786.297 200.196" fill="#E7E8E5"/>
<path d="M576.284 189.572L426.751 198.827L414.871 6.87066L525.9 -1.03696e-05L566.669 34.192L576.284 189.572" fill="#E7E8E5"/>
<path d="M525.9 1.23526e-05L566.669 34.192L528.164 36.576L525.9 1.23526e-05Z" fill="#D4D6D3"/>
<path d="M482.081 152.771C481.735 146.583 485.671 142 491.524 141.672C497.376 141.344 501.635 145.468 501.98 151.656C502.308 157.508 498.716 162.239 492.528 162.587C486.675 162.913 482.409 158.623 482.081 152.771V152.771ZM484.448 129.151L483.869 124.821C482.361 115.847 484.819 105.812 492.617 95.3093C499.647 86.024 503.464 79.268 503.041 71.7427C502.564 63.2133 496.895 57.8267 486.348 58.2494C480.327 58.5867 473.751 60.968 469.748 64.38L465.143 54.0693C470.439 49.7467 479.82 46.536 488.685 46.04C507.917 44.9627 517.277 56.3507 517.988 69.0587C518.627 80.432 512.731 88.9813 505.237 98.964C498.365 108.072 496.103 115.58 497.083 124.081L497.492 128.421L484.448 129.151" fill="#D4D6D3"/>
<path d="M101.945 111.72C106.298 117.795 104.903 126.243 98.8276 130.595C92.7516 134.949 84.2938 133.56 79.9407 127.484C75.587 121.409 76.986 112.944 83.062 108.591C89.1375 104.237 97.5918 105.644 101.945 111.72ZM110.481 96.5067L95.4339 89.6827L93.347 94.2907C92.7328 95.6453 91.4036 96.5107 89.9172 96.576C89.0959 96.612 88.2751 96.692 87.4579 96.8174C85.9912 97.0414 84.5224 96.4493 83.6584 95.244L80.7126 91.1333L67.276 100.76L70.2219 104.871C71.086 106.077 71.1724 107.657 70.4891 108.973C70.1084 109.708 69.7683 110.46 69.4698 111.225C68.9298 112.612 67.6839 113.592 66.2036 113.739L61.1688 114.232L62.7918 130.676L67.8432 130.172C69.3246 130.024 70.726 130.761 71.5303 132.015C71.7479 132.355 71.9766 132.689 72.2136 133.021C72.4506 133.352 72.6954 133.676 72.947 133.992C73.8703 135.149 74.1178 136.705 73.5068 138.056L71.4047 142.697L86.4527 149.521L88.5479 144.904C89.1631 143.549 90.4943 142.687 91.9812 142.623C92.799 142.588 93.6172 142.508 94.4307 142.385C95.8964 142.164 97.3636 142.755 98.2266 143.959L101.173 148.071L114.609 138.445L111.663 134.332C110.799 133.128 110.713 131.548 111.394 130.232C111.772 129.501 112.11 128.752 112.406 127.988C112.945 126.601 114.191 125.619 115.671 125.472L120.717 124.973L119.094 108.529L114.046 109.028C112.57 109.173 111.173 108.439 110.372 107.189C110.153 106.848 109.922 106.509 109.683 106.176C109.446 105.845 109.201 105.521 108.949 105.204C108.021 104.04 107.773 102.476 108.389 101.12L110.481 96.5067" fill="#E7E8E5"/>
<path d="M795.532 325.707C800.769 325.707 805.011 329.949 805.011 335.184C805.011 340.42 800.769 344.671 795.532 344.671C790.297 344.671 786.047 340.42 786.047 335.184C786.047 329.949 790.297 325.707 795.532 325.707ZM790.353 314.639L780.327 320.424L782.099 323.493C782.621 324.395 782.571 325.504 782.001 326.379C781.687 326.86 781.397 327.361 781.136 327.877C780.664 328.804 779.728 329.399 778.689 329.399H775.145V340.979H778.689C779.728 340.979 780.664 341.573 781.136 342.501C781.397 343.016 781.687 343.517 782.001 344C782.571 344.873 782.621 345.983 782.099 346.885L780.327 349.953L790.353 355.737L792.127 352.656C792.647 351.752 793.639 351.255 794.681 351.308C794.964 351.323 795.248 351.331 795.532 351.331C795.817 351.331 796.101 351.323 796.384 351.308C797.421 351.255 798.409 351.749 798.927 352.648L800.713 355.737L810.74 349.953L808.965 346.876C808.444 345.973 808.496 344.863 809.067 343.991C809.38 343.509 809.669 343.012 809.931 342.499C810.403 341.573 811.337 340.979 812.375 340.979H815.919V329.399H812.375C811.337 329.399 810.403 328.804 809.931 327.88C809.669 327.365 809.38 326.868 809.067 326.388C808.496 325.515 808.444 324.404 808.965 323.501L810.74 320.424L800.713 314.639L798.937 317.717C798.417 318.617 797.429 319.113 796.391 319.06C796.108 319.047 795.821 319.039 795.532 319.039C795.248 319.039 794.964 319.047 794.681 319.06C793.639 319.115 792.647 318.616 792.125 317.713L790.353 314.639" fill="#E7E8E5"/>
<path d="M147.476 57.5453C152.668 56.8693 157.421 60.528 158.097 65.72C158.773 70.9134 155.116 75.676 149.924 76.3507C144.731 77.0267 139.968 73.3613 139.292 68.168C138.616 62.976 142.284 58.2213 147.476 57.5453V57.5453ZM140.911 47.2387L131.716 54.2693L133.869 57.0827C134.503 57.9107 134.596 59.0187 134.144 59.9573C133.895 60.476 133.672 61.0094 133.479 61.556C133.131 62.5347 132.281 63.2467 131.25 63.3813L127.736 63.8387L129.231 75.32L132.745 74.864C133.776 74.7293 134.78 75.2 135.367 76.056C135.693 76.5347 136.044 76.9947 136.419 77.432C137.096 78.224 137.289 79.3173 136.888 80.28L135.527 83.552L146.216 87.9947L147.577 84.7093C147.976 83.7453 148.896 83.124 149.936 83.0427C150.217 83.02 150.5 82.9907 150.783 82.9547C151.065 82.9174 151.347 82.8734 151.625 82.8227C152.647 82.636 153.689 82.9987 154.32 83.8227L156.489 86.6573L165.685 79.6267L163.528 76.804C162.895 75.976 162.803 74.868 163.256 73.9293C163.505 73.4133 163.727 72.8813 163.92 72.3373C164.269 71.36 165.119 70.6493 166.149 70.516L169.664 70.0587L168.169 58.576L164.655 59.0333C163.625 59.168 162.621 58.6973 162.033 57.8427C161.708 57.3667 161.357 56.9093 160.984 56.4733C160.305 55.6813 160.112 54.588 160.511 53.6253L161.873 50.3453L151.185 45.9013L149.821 49.184C149.423 50.1427 148.505 50.7613 147.469 50.844C147.187 50.8667 146.901 50.896 146.615 50.9333C146.333 50.9707 146.052 51.0133 145.773 51.064C144.748 51.252 143.699 50.8867 143.065 50.0587L140.911 47.2387" fill="#E7E8E5"/>
<path d="M72.2656 348.065C72.7907 335.164 72.5797 322.236 71.7344 309.352C69.9901 282.779 65.6151 256.411 59.6068 230.481C56.2255 215.885 52.0604 201.536 47.7213 187.204C47.5907 186.771 46.8995 186.893 47.0197 187.344C60.438 237.871 71.4479 290.015 70.6896 342.539C70.4771 357.239 68.776 371.676 67.3803 386.283C67.3432 386.673 67.986 386.831 68.0751 386.429C70.8453 373.929 71.7464 360.832 72.2656 348.065" fill="#E7E8E5"/>
<path d="M47.0197 187.344C47.0197 187.344 26.6917 238.941 31.2426 251.069C35.7942 263.197 45.1765 265.784 45.1765 265.784C45.1765 265.784 32.739 283.541 41.4302 300.196C50.1224 316.851 69.4328 316.063 70.7161 334.948C70.7161 334.948 71.7921 255.988 47.0197 187.344" fill="#E7E8E5"/>
<path d="M68.5068 302.344L68.4864 302.072C65.6312 266.989 59.4068 232.015 48.7683 198.276L48.6011 198.312C52.6282 213.405 56.2126 228.58 59.2751 243.837C56.6355 241.119 53.1823 239.556 49.5714 238.427L49.5344 238.531C53.2943 240.156 56.8964 242.04 59.5542 245.225C60.1479 248.215 60.7287 251.207 61.2807 254.203C56.738 249.127 50.438 246.607 44.1344 244.213L44.085 244.351C50.6506 247.024 57.1896 250.468 61.638 256.125C63.1891 264.688 64.5464 273.281 65.7208 281.9C62.4006 278.431 58.3016 276.099 53.599 274.953C53.4579 274.919 53.3792 275.128 53.5224 275.171C58.3531 276.56 62.5079 279.265 65.8156 283.044L65.8912 283.101C66.2979 286.133 66.6823 289.171 67.0418 292.209C64.4839 290.028 61.6579 288.368 58.5459 287.084L58.4995 287.213C61.661 288.56 64.5052 290.499 67.0088 292.845L67.1172 292.889C67.4558 295.779 67.7927 298.669 68.0855 301.564C63.4246 295.949 57.662 291.885 50.8443 289.255C50.711 289.203 50.6427 289.405 50.7708 289.461C57.3995 292.344 63.2432 296.911 67.762 302.536C67.886 302.691 68.0474 302.716 68.1902 302.671C68.6298 307.112 69.0235 311.559 69.3495 316.012L69.4506 316.017C69.1938 311.459 68.8751 306.9 68.5068 302.344" fill="white"/>
<path d="M52.1735 233.3C48.6479 230.876 44.1683 229.843 39.9604 229.492L39.949 229.647C44.326 230.297 48.0031 231.881 52.0251 233.591C52.2 233.665 52.3251 233.404 52.1735 233.3Z" fill="white"/>
<path d="M54.6407 287.927C51.8516 286.253 48.6688 285.307 45.473 284.791L45.4604 284.965C48.7058 285.553 51.5803 286.709 54.5292 288.147C54.6558 288.208 54.7604 288 54.6407 287.927" fill="white"/>
<path d="M125.705 251.912C117.227 257.871 109.092 264.745 102.177 272.479C94.8052 280.721 89.4297 290.077 85.675 300.461C77.9838 321.736 73.7672 344.781 73.3828 367.391C73.1672 380.064 74.2942 392.64 77.0057 405.028C77.1046 405.479 77.7786 405.35 77.7093 404.895C74.3953 383.1 74.5161 360.859 78.0781 339.104C81.5729 317.759 87.0568 294.536 100.625 277.189C108.013 267.743 117.225 260.312 126.331 252.632C126.81 252.228 126.198 251.564 125.705 251.912" fill="#E7E8E5"/>
<path d="M76.3745 352.02C76.3745 352.02 83.3562 340.264 93.5254 330.097C103.695 319.931 112.26 312.704 113.581 305.98C114.904 299.257 103.395 294.304 103.395 294.304C103.395 294.304 117.468 296.831 121.318 290.925C125.168 285.019 127.027 250.812 127.027 250.812C127.027 250.812 101.425 269.091 89.4973 294.713C77.5693 320.336 76.3745 352.02 76.3745 352.02Z" fill="#E7E8E5"/>
<path d="M118.17 259.581C107.398 270.161 96.5562 281.436 90.2125 295.336C88.0374 300.101 86.1869 305.044 84.5573 310.079L84.5494 310.103C84.2229 311.113 83.8911 312.121 83.5827 313.14L83.5311 313.305C80.3953 323.687 78.1786 334.421 76.2578 344.909L76.3625 344.943C77.4661 339.605 78.6822 334.217 80.0421 328.843L80.1953 328.813C82.3729 327.897 84.5625 327.325 86.9135 327.108C87.0661 327.093 87.0541 326.828 86.8989 326.836C84.6302 326.944 82.4093 327.341 80.2535 328.048C81.4942 323.203 82.8417 318.371 84.3573 313.609C89.2999 312.397 94.4583 311.745 99.5417 311.623L99.5489 311.541C94.4245 311.303 89.6093 311.744 84.6187 312.808C84.8822 311.991 85.1578 311.179 85.4302 310.365C88.7682 309.605 92.1197 308.965 95.5354 308.653L95.5291 308.544C92.1854 308.633 88.8901 308.987 85.6354 309.747C87.0286 305.625 88.5338 301.56 90.2041 297.603C91.5854 294.329 93.2281 291.219 95.0374 288.219C97.775 287.599 100.429 287.007 103.234 286.757L103.226 286.62C100.68 286.455 98.027 286.645 95.5639 287.377C96.9109 285.203 98.3254 283.072 99.839 281.008H99.8406C105.582 279.736 111.4 278.557 117.273 279.66L117.312 279.483C111.721 278.011 106.172 278.86 100.609 279.96C101.216 279.153 101.836 278.355 102.464 277.561C105.988 276.472 109.493 275.947 113.191 275.877L113.2 275.759C109.826 275.437 106.46 275.764 103.199 276.647C107.946 270.749 113.188 265.212 118.371 259.733C118.612 259.479 118.425 259.331 118.17 259.581" fill="white"/>
<path d="M117.883 282.899C116.198 282.72 114.484 282.531 112.791 282.723C112.586 282.744 112.604 283.079 112.81 283.084C114.495 283.133 116.18 283.008 117.867 283.1C117.996 283.108 118.012 282.912 117.883 282.899Z" fill="white"/>
<path d="M99.4562 316.083C96.7661 316.049 94.0786 316.773 91.5656 317.667L91.603 317.78C94.2084 317.159 96.8442 316.907 99.4765 316.472C99.6917 316.437 99.6817 316.085 99.4562 316.083Z" fill="white"/>
<path d="M93.9339 304.619C92.8417 304.561 91.6599 304.753 90.5839 304.921L90.5943 305.121C91.6828 305.14 92.8792 305.171 93.9511 304.964C94.1412 304.928 94.1328 304.629 93.9339 304.619Z" fill="white"/>
<path d="M1.32449 288.213C9.56252 291.076 17.7349 294.759 25.1193 299.419C32.9896 304.387 39.5031 310.716 44.9417 318.252C56.0833 333.691 64.8224 351.365 70.3588 369.573C73.4631 379.781 75.4573 390.22 76.126 400.872C76.1505 401.259 75.5755 401.312 75.526 400.927C73.1703 382.521 67.9323 364.551 60.0208 347.768C52.2588 331.301 42.4536 313.776 27.4636 302.873C19.3016 296.936 10.1292 293.052 0.984389 288.941C0.504181 288.725 0.845326 288.047 1.32449 288.213" fill="#E7E8E5"/>
<path d="M64.3849 357.828C64.3849 357.828 56.0177 349.927 45.438 344.049C34.8588 338.172 26.2573 334.304 23.6328 329.168C21.0088 324.032 29.1787 317.364 29.1787 317.364C29.1787 317.364 18.3729 322.663 13.8921 318.772C9.41093 314.883 0 287.628 0 287.628C0 287.628 24.9437 296.504 40.5197 314.483C56.0953 332.461 64.3849 357.828 64.3849 357.828" fill="#E7E8E5"/>
<path d="M63.086 352.207C50.6104 328.788 33.9636 307.605 11.1536 293.621L11.1427 293.637C17.1479 297.463 22.6817 301.877 27.8385 306.703C23.2219 306.575 18.5208 307.309 14.4276 309.533L14.4953 309.673C19.0579 308.129 23.4417 307.116 28.2943 307.341L28.4505 307.283C29.2604 308.051 30.0588 308.831 30.8495 309.617C28.4489 309.721 26.0213 310.06 23.6828 310.569L23.7027 310.669C26.2328 310.179 28.7036 310.008 31.2719 310.044C35.4521 314.244 39.3464 318.737 43.0369 323.403C41.3708 323.161 39.624 323.301 38.0265 323.767C37.9084 323.801 37.9385 323.972 38.0631 323.955C39.8807 323.727 41.6073 323.756 43.412 323.883C44.0953 324.752 44.7855 325.616 45.4536 326.497C40.3245 326.187 35.2995 326.679 30.3145 327.968L30.3369 328.084C35.4787 327.075 40.6631 326.753 45.8864 327.075C46.5229 327.919 47.1255 328.787 47.7495 329.64C44.6891 329.548 41.7213 329.929 38.7375 330.672L38.7719 330.852C41.8417 330.153 44.9631 329.976 48.1011 330.125C50.7844 333.824 53.3557 337.603 55.8255 341.428C54.5177 341.159 53.1448 341.305 51.8703 341.667L51.8912 341.775C53.3593 341.603 54.7297 341.791 56.1719 341.977C58.3937 345.436 60.5407 348.929 62.5989 352.443C62.7729 352.737 63.2516 352.516 63.086 352.207" fill="white"/>
<path d="M43.6798 332.783C41.2413 332.573 38.7626 332.956 36.4329 333.669L36.4537 333.777C38.8517 333.335 41.2293 333.168 43.6599 333.039C43.8198 333.029 43.8506 332.796 43.6798 332.783" fill="white"/>
<path d="M21.9219 304.244C20.8193 304.119 19.6688 304.264 18.5797 304.439C18.45 304.459 18.4901 304.651 18.6172 304.637C19.7161 304.519 20.8 304.56 21.8995 304.528C22.0787 304.523 22.1073 304.267 21.9219 304.244Z" fill="white"/>
<path d="M96.5578 435.262H40.2531L48.2812 376.452L50.3333 361.373H86.4781L88.5302 376.452L96.5578 435.262" fill="#D4D6D3"/>
<path d="M88.5303 376.452H48.2812L50.3334 361.373H86.4782L88.5303 376.452Z" fill="#BEBFBD"/>
<path d="M91.6474 368.913H45.1641V356.143H91.6474V368.913Z" fill="#D4D6D3"/>
<path d="M4.45837 435.262L105.804 434.938L207.149 434.82L409.84 434.597L612.529 434.819L713.876 434.936L815.221 435.262L713.876 435.588L612.529 435.705L409.84 435.928L207.149 435.704L105.804 435.587L4.45837 435.262" fill="#333333"/>
<path d="M794.829 492.747C794.829 515.885 623.657 534.64 412.507 534.64C201.356 534.64 30.1838 515.885 30.1838 492.747C30.1838 469.611 201.356 450.855 412.507 450.855C623.657 450.855 794.829 469.611 794.829 492.747" fill="#E7E8E5"/>
<path d="M323.508 485.805C320.4 486.857 231.315 487.171 227.911 485.035C226.615 484.232 225.812 471.26 225.288 455.56C225.173 452.169 225.077 448.667 225 445.109L217.776 397.595L277.329 397.213L282.951 444.737L282.723 455.191C282.723 455.191 316.884 470.326 320.367 473.069C323.831 475.812 326.616 484.754 323.508 485.805" fill="#F57A76"/>
<path d="M323.508 485.805C320.4 486.857 231.315 487.171 227.911 485.035C226.336 484.05 225.477 465.107 225 445.109L282.951 444.737L282.723 455.191C282.723 455.191 316.884 470.326 320.367 473.069C323.831 475.812 326.616 484.754 323.508 485.805" fill="white"/>
<path d="M323.508 485.805C320.4 486.857 231.315 487.171 227.911 485.035C226.615 484.232 225.812 471.26 225.288 455.56L282.723 455.191C282.723 455.191 316.884 470.326 320.367 473.069C323.831 475.812 326.616 484.754 323.508 485.805" fill="#999B9B"/>
<path d="M322.219 482.245C307.284 481.932 247.017 482.073 232.231 482.897C232.111 482.904 232.111 482.987 232.231 482.992C247.027 483.626 307.291 482.997 322.22 482.491C322.535 482.48 322.533 482.252 322.219 482.245" fill="#333333"/>
<path d="M314.625 469.885C311.084 469.754 307.628 471.447 305.705 473.562C303.857 475.596 302.28 478.45 302.396 481.548L302.576 481.547C303.408 475.7 308.705 470.548 314.627 470.072C314.747 470.062 314.748 469.889 314.625 469.885" fill="#333333"/>
<path d="M288.52 456.656C282.543 456.595 275.62 458.728 271.923 463.629C271.78 463.82 272.052 464.02 272.229 463.928C277.623 461.123 282.752 459.031 288.625 457.392C289.04 457.276 288.948 456.661 288.52 456.656Z" fill="#333333"/>
<path d="M293.14 458.438C287.163 458.377 280.241 460.511 276.544 465.412C276.4 465.603 276.672 465.803 276.849 465.711C282.243 462.905 287.372 460.813 293.247 459.173C293.66 459.059 293.568 458.444 293.14 458.438" fill="#333333"/>
<path d="M297.761 460.221C291.784 460.16 284.861 462.293 281.164 467.195C281.021 467.385 281.293 467.585 281.471 467.493C286.864 464.688 291.993 462.596 297.867 460.956C298.28 460.84 298.189 460.226 297.761 460.221Z" fill="#333333"/>
<path d="M302.381 462.003C296.404 461.943 289.481 464.076 285.785 468.977C285.641 469.168 285.913 469.368 286.091 469.276C291.484 466.472 296.613 464.379 302.487 462.738C302.901 462.623 302.809 462.008 302.381 462.003Z" fill="#333333"/>
<path d="M235.985 468.701C229.279 468.744 229.335 479.167 236.052 479.123C242.757 479.08 242.703 468.659 235.985 468.701Z" fill="#333333"/>
<path d="M287.635 453.413C285.581 454.919 283.469 456.315 281.472 457.896C282.529 454.913 283.452 451.901 284.809 449.028C285.457 447.657 286.148 446.26 286.979 444.988C288.271 443.008 294.119 437.993 294.737 444.495C295.077 448.077 290.081 451.617 287.635 453.413V453.413ZM294.923 440.684C291.889 438.185 288.087 440.65 286.229 443.262C283.224 447.492 281.168 453.412 280.852 458.565C280.845 458.692 280.941 458.743 281.04 458.736C281.168 459.164 281.676 459.521 282.116 459.215C286.361 456.256 291.267 453.619 294.477 449.447C296.352 447.009 297.793 443.047 294.923 440.684" fill="#333333"/>
<path d="M262.391 457.445C258.328 452.332 266.02 451.892 268.324 452.423C269.803 452.762 271.269 453.289 272.687 453.83C275.657 454.959 278.412 456.491 281.241 457.907C278.705 458.15 276.215 458.611 273.692 458.948C270.684 459.35 264.629 460.264 262.391 457.445ZM266.009 460.835C271.217 461.616 276.58 460.115 281.691 459.303C282.221 459.22 282.337 458.611 282.135 458.212L282.152 457.959C278.351 454.464 272.765 451.623 267.665 450.66C264.517 450.064 260.068 450.925 259.613 454.83C259.184 458.521 262.971 460.377 266.009 460.835Z" fill="#333333"/>
<path d="M130.265 177.959C130.265 177.959 199.424 295.612 201.276 303.872C204.121 316.564 219.205 441.919 219.205 441.919L291.167 440.623C291.167 440.623 278.764 330.101 267.017 293.689C258.556 267.463 197.521 180.477 197.521 180.477L130.265 177.959" fill="#333333"/>
<path d="M284.623 429.591C274.288 429.515 237.667 429.103 223.912 430.387L223.915 430.584C228.648 431.265 274.297 430.207 284.627 429.875C284.821 429.868 284.817 429.592 284.623 429.591" fill="#333333"/>
<path d="M142.069 188.755C146.601 195.864 151.383 202.824 156.016 209.869C160.652 216.919 165.272 223.979 169.829 231.077C178.941 245.265 187.813 259.6 196.524 274.025C200.609 280.791 204.5 287.619 207.305 294.999C210.084 302.308 211.976 309.913 213.376 317.58C214.785 325.304 215.715 333.101 216.592 340.896C217.525 349.196 218.445 357.499 219.372 365.799C221.268 382.784 223.164 399.769 225.06 416.755C225.293 418.838 225.521 420.921 225.729 423.007C225.76 423.312 225.213 423.373 225.175 423.067C223.057 406.189 221.299 389.263 219.375 372.361C218.417 363.949 217.46 355.535 216.503 347.121C215.612 339.299 214.765 331.467 213.552 323.684C212.359 316.04 210.809 308.428 208.483 301.028C206.053 293.297 202.611 286.039 198.533 279.009C190.195 264.628 181.369 250.491 172.541 236.391C163.637 222.168 154.659 207.985 145.347 194.013C144.196 192.288 143.037 190.573 141.845 188.875C141.752 188.744 141.981 188.617 142.069 188.755" fill="#333333"/>
<path d="M152.936 492.744C149.655 492.544 64.9418 458.22 62.5803 454.967C62.5022 454.857 62.4552 454.644 62.4506 454.34C62.4662 451.428 68.3328 441.231 73.2364 427.852C73.5438 426.997 75.7292 423.026 78.764 417.672C87.1063 402.968 101.866 377.777 101.866 377.777L157.237 399.777L130.734 439.45L126.609 449.055C126.609 449.055 152.596 475.909 154.791 479.755C156.972 483.596 156.205 492.931 152.936 492.744" fill="#F57A76"/>
<path d="M152.936 492.744C149.655 492.544 64.9418 458.22 62.5803 454.967C62.5022 454.857 62.4552 454.644 62.4506 454.34C62.4662 451.428 68.3328 441.231 73.2364 427.852C73.5438 426.997 75.7292 423.026 78.764 417.672L130.734 439.45L126.609 449.055C126.609 449.055 152.596 475.909 154.791 479.755C156.972 483.596 156.205 492.931 152.936 492.744" fill="white"/>
<path d="M152.931 492.737C149.653 492.548 64.9375 458.22 62.5813 454.962C61.6823 453.732 65.4698 442.164 73.2293 427.855L126.607 449.06C126.607 449.06 152.596 475.904 154.796 479.754C156.979 483.596 156.205 492.929 152.931 492.737Z" fill="#999B9B"/>
<path d="M153.069 488.955C139.343 483.061 83.425 460.585 69.4093 455.801L69.3745 455.889C82.8516 462.028 138.949 484.05 152.979 489.181C153.275 489.291 153.36 489.079 153.069 488.955" fill="#333333"/>
<path d="M150.668 474.648C147.435 473.197 143.596 473.472 141.02 474.712C138.544 475.901 136.011 477.957 134.956 480.872L135.124 480.938C138.088 475.831 144.932 473.043 150.6 474.823L150.668 474.648Z" fill="#333333"/>
<path d="M131.432 452.592C125.915 450.292 118.697 449.673 113.432 452.831C113.227 452.952 113.404 453.24 113.603 453.223C119.654 452.645 125.194 452.629 131.254 453.313C131.682 453.361 131.828 452.757 131.432 452.592Z" fill="#333333"/>
<path d="M135.047 455.979C129.529 453.677 122.312 453.06 117.046 456.216C116.842 456.338 117.019 456.626 117.218 456.608C123.269 456.031 128.809 456.015 134.868 456.699C135.296 456.748 135.441 456.143 135.047 455.979" fill="#333333"/>
<path d="M138.661 459.364C133.143 457.064 125.925 456.447 120.66 459.603C120.456 459.724 120.633 460.012 120.831 459.993C126.883 459.417 132.423 459.4 138.483 460.085C138.909 460.133 139.056 459.528 138.661 459.364Z" fill="#333333"/>
<path d="M142.275 462.749C136.757 460.449 129.541 459.832 124.275 462.988C124.07 463.111 124.247 463.397 124.446 463.38C130.497 462.803 136.037 462.785 142.097 463.471C142.524 463.519 142.669 462.915 142.275 462.749" fill="#333333"/>
<path d="M78.2156 444.05C71.9828 441.573 68.1251 451.255 74.3672 453.735C80.5995 456.212 84.4584 446.529 78.2156 444.05Z" fill="#333333"/>
<path d="M131.828 449.255C129.36 449.88 126.878 450.381 124.434 451.099C126.532 448.729 128.518 446.284 130.854 444.128C131.969 443.101 133.133 442.065 134.38 441.199C136.32 439.848 143.624 437.393 141.757 443.65C140.728 447.101 134.769 448.507 131.828 449.255V449.255ZM143.36 440.189C141.484 436.735 137.033 437.593 134.333 439.319C129.96 442.111 125.834 446.828 123.608 451.487L123.718 451.715C123.677 452.16 124.013 452.681 124.536 452.561C129.581 451.412 135.117 450.808 139.659 448.144C142.311 446.589 145.133 443.455 143.36 440.189Z" fill="#333333"/>
<path d="M106.914 443.52C105.066 437.257 112.363 439.735 114.299 441.091C115.543 441.961 116.704 443.001 117.816 444.032C120.145 446.195 122.124 448.647 124.216 451.02C121.773 450.296 119.292 449.787 116.826 449.155C113.887 448.399 107.932 446.974 106.914 443.52V443.52ZM108.998 448.02C113.532 450.697 119.067 451.319 124.108 452.484C124.631 452.605 124.969 452.084 124.929 451.638L125.039 451.411C122.828 446.747 118.716 442.016 114.351 439.211C111.656 437.479 107.208 436.607 105.322 440.055C103.539 443.316 106.352 446.457 108.998 448.02Z" fill="#333333"/>
<path d="M135.007 437.231L73.0265 412.204C73.0265 412.204 149.875 299.211 150.444 290.8C150.947 283.351 117.193 218.523 115.862 199.629C114.427 179.24 124.245 163.459 135.033 153.665L198.973 180.844C198.973 180.844 192.225 191.641 181.596 197.649C181.596 197.649 214.385 272.584 212.525 295.624C210.655 318.789 135.007 437.231 135.007 437.231Z" fill="#333333"/>
<path d="M137.76 425.444C128.797 421.591 131.424 422.569 122.418 418.816C118.01 416.979 89.0395 404.936 84.6291 403.945L84.5541 404.128C88.4098 406.489 117.586 418.025 122.028 419.777C131.104 423.356 128.537 422.229 137.653 425.708C137.824 425.773 137.928 425.516 137.76 425.444Z" fill="#333333"/>
<path d="M192.121 196.279C185.46 197.711 178.925 200.064 172.648 202.593C172.401 202.692 172.517 203.059 172.78 202.981C179.317 201.073 185.965 199.291 192.381 197.036C192.885 196.86 192.632 196.169 192.121 196.279Z" fill="#333333"/>
<path d="M184.536 193.647C183.907 194.747 183.371 195.903 182.893 197.073C182.524 197.981 182.051 198.953 182.055 199.944C182.056 200.136 182.315 200.183 182.433 200.065C183.175 199.336 183.571 198.269 184.04 197.359C184.584 196.303 185.152 195.257 185.665 194.188C186.004 193.477 184.924 192.969 184.536 193.647" fill="#333333"/>
<path d="M185.312 187.636C185.704 186.652 186.099 185.671 186.512 184.695C186.94 183.685 187.439 182.691 187.787 181.652C187.841 181.488 188.1 181.599 188.035 181.763C187.645 182.749 187.389 183.8 187.076 184.812C186.761 185.831 186.429 186.841 186.093 187.852C185.467 189.733 184.7 191.601 183.891 193.416C184.937 193.403 186.013 193.356 186.964 192.883C187.995 192.368 188.621 191.272 189.129 190.281C189.693 189.18 190.211 188.056 190.792 186.964C191.433 185.755 192.143 184.561 192.565 183.253C192.619 183.088 192.873 183.199 192.815 183.365C191.852 186.064 190.905 188.761 189.408 191.249C188.819 192.227 188.343 193.243 187.257 193.625C186.093 194.037 184.82 193.956 183.609 193.869C183.459 193.911 183.265 193.815 183.317 193.633C183.892 191.62 184.536 189.58 185.312 187.636" fill="#333333"/>
<path d="M182.592 200.089C184.864 204.908 186.863 209.707 188.988 214.507C191.064 219.197 193.007 223.943 194.895 228.711C198.708 238.347 202.124 248.159 205.12 258.079C206.604 262.988 207.969 267.932 209.203 272.909C210.44 277.9 211.649 282.941 212.163 288.067C212.676 293.208 212.311 298.292 210.879 303.264C209.425 308.308 207.509 312.713 205.236 317.432C203.847 320.316 203.368 319.927 204.041 318.471C205.949 314.34 210.945 301.824 210.584 291.3C210.408 286.223 209.365 281.223 208.22 276.288C207.049 271.253 205.727 266.252 204.285 261.287C201.445 251.504 198.072 241.915 194.601 232.341C192.657 226.977 190.571 221.669 188.597 216.316C186.611 210.923 184.56 206.072 182.355 200.184C182.297 200.031 182.523 199.941 182.592 200.089" fill="#333333"/>
<path d="M135.533 184.177C136.643 183.767 138.184 184.447 139.316 184.637C140.768 184.881 142.236 185.029 143.708 185.08C145.159 185.129 146.62 185.069 148.065 184.929C149.508 184.789 150.981 184.611 152.237 183.828C154.352 182.507 156.121 180.183 157.555 178.18C159.129 175.979 160.764 173.448 161.703 170.897C161.76 170.741 161.984 170.848 161.936 171.003C161.469 172.488 161.123 173.987 160.528 175.44C159.971 176.807 159.249 178.113 158.483 179.372C157.053 181.725 155.415 184.235 152.963 185.633C150.391 187.101 147.077 187.013 144.209 186.848C142.551 186.752 140.899 186.532 139.273 186.191C138.099 185.943 136.125 185.755 135.376 184.723C135.244 184.54 135.315 184.259 135.533 184.177" fill="#333333"/>
<path d="M90.7197 400.392C100.908 384.973 110.906 369.429 120.725 353.773C130.57 338.075 140.231 322.265 149.759 306.373C152.037 302.572 154.671 298.776 156.139 294.565C157.733 289.989 156.828 285.557 155.383 281.079C152.732 272.867 149.431 264.876 145.867 257.021C142.293 249.144 138.444 241.396 134.659 233.619C130.904 225.907 126.908 218.168 124.059 210.061C121.339 202.319 120.303 194.289 122.391 186.259C124.463 178.291 128.945 171.136 133.624 164.459C134.86 162.699 136.116 160.952 137.356 159.195C137.449 159.06 137.653 159.223 137.555 159.355C132.398 166.316 127.369 173.684 124.344 181.857C122.849 185.895 121.881 190.147 121.786 194.463C121.69 198.839 122.511 203.183 123.801 207.352C126.308 215.457 130.266 223.135 133.955 230.751C137.727 238.536 141.599 246.275 145.235 254.124C148.892 262.023 152.315 270.043 155.127 278.284C156.379 281.953 157.775 285.792 157.692 289.725C157.601 294.032 155.545 297.909 153.417 301.54C144.147 317.347 134.525 332.956 124.784 348.477C115.006 364.057 105.034 379.513 94.9068 394.869C93.6303 396.805 92.3505 398.74 91.0677 400.672C90.9088 400.913 90.562 400.629 90.7197 400.392" fill="#333333"/>
<path d="M202.524 108.98C208.295 121.647 237.447 139.104 251.103 140.979C260.925 142.328 290.755 142.792 300.983 141.231C312.964 139.401 303.811 107.056 296.727 107.885C277.261 110.161 260.732 112.695 255.536 112.695C249.192 112.695 214.853 101.672 210.716 100.121C200.591 96.328 199.251 101.795 202.524 108.98" fill="#F57A76"/>
<path d="M202.704 112.333C210.009 123.145 234.3 140.82 234.3 140.82L237.669 133.351L248.824 108.665C248.824 108.665 226.519 101.627 211.84 98.4907C209.857 98.0653 208.111 97.8094 206.588 97.7427C197.217 97.2374 196.404 103.032 202.704 112.333Z" fill="#8899FF"/>
<path d="M202.704 112.333C210.009 123.145 234.3 140.82 234.3 140.82L237.669 133.351C228.612 122.837 214.631 106.903 206.588 97.7427C197.217 97.2374 196.404 103.032 202.704 112.333" fill="#333333"/>
<path d="M229.92 135.829C231.771 131.292 240.017 112.985 242.064 109.143C242.207 108.877 242.408 108.897 242.296 109.193C237.075 122.915 232.141 131.528 230.1 135.892L229.92 135.829" fill="#333333"/>
<path d="M293.156 108.24C305.003 106.687 319.659 104.028 332.068 109.297C334.503 110.331 335.385 112.145 335.385 112.145C340.989 114.408 341.603 117.733 341.603 117.733C346.177 121.439 346.339 124.927 346.339 124.927C346.339 124.927 352.889 127.655 351.897 131.888C350.8 136.637 341.815 131.876 335.273 132.28C320.284 133.204 299.237 138.711 294.941 139.407L293.156 108.24Z" fill="#F57A76"/>
<path d="M318.885 122.209C323.301 122.025 327.635 121.729 332.053 122.145C336.901 122.6 341.489 123.851 346.193 125.008C346.34 125.044 346.405 124.844 346.265 124.785C338.084 121.343 327.592 120.439 318.873 122.009C318.663 122.047 318.664 122.219 318.885 122.209" fill="#333333"/>
<path d="M317.012 113.244C321.32 113.304 328.889 113.456 341.557 117.869L341.592 117.796C333.749 113.837 325.707 112.429 317.016 113.039C316.745 113.059 316.725 113.24 317.012 113.244Z" fill="#333333"/>
<path d="M316.096 108.408C323.416 108.787 327.984 109.953 335.347 112.167L335.377 112.091C327.273 108.697 323.948 108.384 316.073 108.153C315.804 108.145 315.809 108.392 316.096 108.408" fill="#333333"/>
<path d="M317.283 134.537C315.379 135.431 315.835 136.436 319.477 137.28C323.161 138.141 338.255 138.371 337.723 143.643C337.197 148.935 315.841 148.259 309.884 146.389C303.92 144.532 294.941 139.407 294.941 139.407C299.123 138.701 309.1 136.025 317.283 134.537Z" fill="#F57A76"/>
<path d="M218.377 129.173C218.285 131.452 218.061 133.771 217.741 136.068L217.839 135.823C218.283 134.623 218.716 133.392 219.253 132.232L219.376 132.261C219.141 133.521 218.7 134.785 218.221 135.972C217.992 136.539 217.759 137.105 217.512 137.667C217.347 138.691 217.164 139.708 216.956 140.709C216.563 142.616 214.761 150.727 214.352 152.097C214.265 152.387 213.923 152.32 213.944 151.999C214.043 150.505 215.553 142.059 215.859 140.145C216.444 136.473 217.252 132.727 218.235 129.14L218.377 129.173" fill="#333333"/>
<path d="M204.476 189.788C200.92 191.623 196.333 194.463 175.669 190.393C174.377 190.132 173.079 189.813 171.776 189.427C152.397 183.605 129.153 160.816 127.842 159.209C127.842 159.209 158.621 109.301 197.996 93.6133C202.861 91.676 210.92 95.4133 215.38 100.068C216.973 101.729 220.429 113.976 219.103 123.9C217.764 133.808 208.057 187.973 204.476 189.788" fill="#8899FF"/>
<path d="M201.727 123.444C201.84 124.516 201.755 125.561 201.624 126.599C201.469 127.633 201.265 128.66 200.861 129.66C200.748 128.588 200.832 127.544 200.965 126.507C201.123 125.472 201.327 124.445 201.727 123.444Z" fill="white"/>
<path d="M188.305 157.431C188.419 158.503 188.333 159.547 188.203 160.585C188.047 161.619 187.843 162.647 187.44 163.647C187.325 162.575 187.411 161.531 187.543 160.493C187.7 159.459 187.904 158.431 188.305 157.431Z" fill="white"/>
<path d="M165.488 131.745C165.601 132.817 165.517 133.861 165.385 134.899C165.229 135.933 165.027 136.961 164.623 137.961C164.508 136.889 164.593 135.845 164.725 134.808C164.884 133.773 165.087 132.745 165.488 131.745Z" fill="white"/>
<path d="M210.52 155.707C210.633 156.779 210.548 157.823 210.417 158.861C210.261 159.895 210.057 160.923 209.655 161.923C209.54 160.851 209.624 159.807 209.757 158.769C209.915 157.735 210.119 156.707 210.52 155.707Z" fill="white"/>
<path d="M181.223 127.337C182.293 127.224 183.337 127.309 184.376 127.44C185.411 127.596 186.437 127.8 187.437 128.203C186.365 128.317 185.321 128.232 184.284 128.1C183.251 127.943 182.223 127.739 181.223 127.337Z" fill="white"/>
<path d="M155.328 151.892C156.399 151.78 157.444 151.864 158.481 151.995C159.516 152.151 160.544 152.355 161.544 152.757C160.472 152.872 159.427 152.787 158.389 152.655C157.356 152.497 156.328 152.293 155.328 151.892Z" fill="white"/>
<path d="M185.789 178.468C186.861 178.355 187.907 178.439 188.944 178.569C189.979 178.727 191.005 178.929 192.005 179.333C190.935 179.448 189.889 179.363 188.852 179.229C187.817 179.072 186.791 178.868 185.789 178.468Z" fill="white"/>
<path d="M147.345 168.812C148.417 168.7 149.461 168.784 150.5 168.916C151.533 169.072 152.561 169.276 153.561 169.679C152.489 169.793 151.445 169.708 150.408 169.576C149.373 169.419 148.345 169.215 147.345 168.812Z" fill="white"/>
<path d="M201.532 99.556C202.604 99.444 203.648 99.528 204.687 99.66C205.72 99.816 206.748 100.02 207.748 100.423C206.676 100.537 205.632 100.452 204.593 100.32C203.56 100.163 202.532 99.9587 201.532 99.556Z" fill="white"/>
<path d="M194.007 108.063C193.328 108.9 192.529 109.579 191.703 110.22C190.861 110.841 189.991 111.424 188.999 111.847C189.676 111.007 190.473 110.329 191.301 109.689C192.144 109.068 193.015 108.487 194.007 108.063Z" fill="white"/>
<path d="M152.945 132.231C152.268 133.068 151.469 133.747 150.643 134.388C149.801 135.009 148.931 135.592 147.939 136.015C148.615 135.175 149.413 134.497 150.241 133.857C151.084 133.237 151.955 132.655 152.945 132.231Z" fill="white"/>
<path d="M204.207 143.148C203.529 143.985 202.731 144.664 201.904 145.305C201.063 145.925 200.192 146.508 199.2 146.931C199.877 146.092 200.675 145.413 201.503 144.773C202.345 144.153 203.216 143.571 204.207 143.148Z" fill="white"/>
<path d="M171.009 164.052C170.332 164.889 169.533 165.568 168.707 166.209C167.865 166.831 166.995 167.413 166.003 167.835C166.68 166.996 167.477 166.317 168.305 165.677C169.148 165.057 170.019 164.475 171.009 164.052Z" fill="white"/>
<path d="M216.928 114.58C216.251 115.417 215.452 116.096 214.625 116.737C213.784 117.359 212.913 117.941 211.92 118.364C212.597 117.524 213.396 116.845 214.224 116.205C215.067 115.585 215.937 115.004 216.928 114.58" fill="white"/>
<path d="M216.233 138.811C215.396 138.133 214.717 137.335 214.076 136.508C213.455 135.667 212.872 134.796 212.449 133.804C213.289 134.48 213.968 135.28 214.608 136.107C215.227 136.949 215.809 137.82 216.233 138.811Z" fill="white"/>
<path d="M142.243 155.497C141.404 154.819 140.725 154.021 140.084 153.195C139.463 152.353 138.88 151.481 138.459 150.489C139.297 151.167 139.976 151.965 140.616 152.793C141.236 153.636 141.819 154.507 142.243 155.497" fill="white"/>
<path d="M207.24 175.361C206.403 174.683 205.724 173.885 205.083 173.059C204.461 172.217 203.879 171.345 203.456 170.353C204.296 171.031 204.973 171.829 205.613 172.657C206.233 173.5 206.816 174.371 207.24 175.361" fill="white"/>
<path d="M174.667 118.759C173.828 118.08 173.149 117.283 172.508 116.455C171.888 115.613 171.305 114.743 170.883 113.751C171.721 114.428 172.4 115.227 173.04 116.055C173.66 116.896 174.243 117.768 174.667 118.759Z" fill="white"/>
<path d="M175.241 186.664C174.403 185.985 173.724 185.188 173.084 184.361C172.463 183.519 171.88 182.648 171.457 181.656C172.296 182.333 172.975 183.132 173.615 183.959C174.235 184.803 174.817 185.672 175.241 186.664Z" fill="white"/>
<path d="M180.779 146.607C179.941 145.928 179.263 145.131 178.621 144.304C178 143.461 177.417 142.591 176.996 141.599C177.835 142.276 178.513 143.075 179.153 143.901C179.773 144.745 180.356 145.616 180.779 146.607Z" fill="white"/>
<path d="M208.141 113.353C203.125 112.419 198.395 102.033 197.801 95.048C197.763 94.568 200.149 90.764 202.832 86.004C204.448 83.1107 206.18 79.8493 207.545 76.7587C207.821 76.1227 209.467 78.2427 209.467 78.2427L213.039 80.976L224.845 90.0293C224.845 90.0293 220.079 95.6653 217.731 101.067C217.54 101.52 217.4 101.959 217.304 102.393L217.24 102.616C216.568 105.197 212.992 114.251 208.141 113.353" fill="#F57A76"/>
<path d="M217.304 102.393L217.24 102.616C216.595 102.433 215.919 102.179 215.2 101.841C202.28 95.7853 207.98 78.4733 207.98 78.4733L213.039 80.976L224.845 90.0293C224.845 90.0293 220.079 95.6653 217.731 101.067C217.54 101.52 217.4 101.959 217.304 102.393Z" fill="#333333"/>
<path d="M238.397 53.1307C238.397 53.1307 244.3 56.8787 244.339 63.544C244.377 70.2093 241.723 76.7293 241.107 76.9627C240.489 77.1973 238.397 53.1307 238.397 53.1307" fill="#333333"/>
<path d="M209.097 56.588C205.548 63.596 205.727 85.6574 210.16 91.3427C216.585 99.5827 228.964 102.423 236.435 94.2734C243.677 86.376 242.935 57.6294 237.811 52.272C230.264 44.3814 214.34 46.2387 209.097 56.588" fill="#F57A76"/>
<path d="M227.921 74.264L227.809 74.4C227.892 75.9013 227.733 77.636 226.385 78.1667L226.399 78.2494C228.055 77.9787 228.241 75.6733 227.921 74.264Z" fill="#333333"/>
<path d="M226.543 72.7254C224.12 72.5974 224.044 77.452 226.288 77.5694C228.497 77.6854 228.573 72.832 226.543 72.7254Z" fill="#333333"/>
<path d="M236.149 74.208L236.263 74.3427C236.192 75.8454 236.361 77.5787 237.715 78.1L237.7 78.1841C236.045 77.9227 235.84 75.6214 236.149 74.208Z" fill="#333333"/>
<path d="M237.517 72.6587C239.939 72.5133 240.051 77.3667 237.807 77.5013C235.6 77.6347 235.487 72.78 237.517 72.6587Z" fill="#333333"/>
<path d="M225.023 69.0307C225.685 68.8734 226.272 68.6187 226.913 68.3974C227.636 68.1467 228.237 68.0214 228.717 67.3854C228.975 67.0441 228.88 66.4214 228.572 66.14C227.855 65.484 226.893 65.5707 226.011 65.8374C225.053 66.1254 224.389 66.5934 223.831 67.4201C223.288 68.2214 224.147 69.2347 225.023 69.0307" fill="#333333"/>
<path d="M239.2 71.1814C238.528 71.0614 237.929 70.8374 237.279 70.6494C236.544 70.4387 235.936 70.3454 235.423 69.7347C235.147 69.4067 235.208 68.7814 235.501 68.4827C236.184 67.7894 237.148 67.8267 238.043 68.0454C239.015 68.2827 239.703 68.7147 240.305 69.5107C240.888 70.2827 240.085 71.3401 239.2 71.1814" fill="#333333"/>
<path d="M224.499 88.512C224.853 88.8693 225.205 89.3587 225.749 89.4133C226.272 89.4667 226.889 89.24 227.372 89.0613L227.436 89.14C227.036 89.7107 226.209 90.0586 225.515 89.9253C224.835 89.796 224.508 89.2027 224.353 88.5773L224.499 88.512" fill="#333333"/>
<path d="M233.231 82.0827C233.231 82.0827 233.295 84.3333 233.181 85.3786C233.169 85.476 230.221 84.9 227.043 85.5986C226.567 85.7026 226.612 85.316 227.164 85.0626C228.264 84.556 229.661 84.0786 232.381 84.3706C232.487 84.0893 232.219 80.908 232.387 80.9133C232.963 80.9266 234.047 81.44 234.701 81.7106C234.705 77.02 233.956 72.3653 234.028 67.6933C234.033 67.5266 234.276 67.504 234.308 67.656C235.44 72.4787 235.555 77.8773 235.676 82.7227C235.697 83.3267 233.631 82.3067 233.231 82.0827" fill="#333333"/>
<path d="M230.232 84.5787C230.232 84.5787 229.184 87.216 227.431 87.924C225.416 88.74 224.724 86.916 226.781 85.3027C227.861 84.4573 230.232 84.5787 230.232 84.5787" fill="#333333"/>
<path d="M228.132 87.5134C227.905 87.6867 227.679 87.8333 227.425 87.9267C225.572 88.6733 224.839 87.1933 226.333 85.7C227.345 85.78 228.452 86.1534 228.132 87.5134Z" fill="#F577B8"/>
<path d="M208.077 75.4626C210.515 76.2106 213.32 68.88 214.113 66.0613C214.812 63.576 215.617 55.696 215.737 55.1586C215.856 54.6213 226.367 62.132 232.512 60.336C238.657 58.54 242.764 53.0253 242.848 50.452C242.933 47.8773 235.303 41.3427 228.7 41.0093C222.097 40.6747 213.161 49.0666 213.161 49.0666C213.161 49.0666 216.196 45.44 216.093 45.1426C215.991 44.8453 211.724 46.5507 210.94 49.588C210.94 49.588 211.784 45.7733 211.461 45.7026C211.139 45.632 207.824 48.9 208.572 51.3746C208.572 51.3746 204.737 54.6973 204.383 58.3373C204.028 61.9786 205.213 74.584 208.077 75.4626" fill="#333333"/>
<path d="M236.879 59.052C235.011 59.912 233.139 60.856 231.073 61.1293C228.841 61.424 226.525 60.864 224.448 60.0667C222.323 59.2533 220.391 58.0733 218.637 56.628C217.1 55.3627 215.736 53.836 214.096 52.7093C213.685 52.4267 213.209 53.0187 213.463 53.396C215.955 57.1347 220.363 60.256 224.612 61.604C229.084 63.0213 233.287 62.024 236.901 59.1L236.879 59.052" fill="#333333"/>
<path d="M210.628 74.8093C210.628 74.8093 206.845 67.1267 203.432 68.3733C200.017 69.6187 202.119 80.2333 205.603 82.1787C209.085 84.1213 210.948 80.932 210.948 80.932L210.628 74.8093" fill="#F57A76"/>
<path d="M204.109 71.4013L204.075 71.4973C206.504 72.9453 207.499 75.5573 208.071 78.1946C207.447 77.1173 206.479 76.4307 205.053 77.1507L205.103 77.3C206.199 77.236 206.936 77.5373 207.523 78.4973C207.937 79.1787 208.167 79.992 208.424 80.7427C208.509 80.9933 208.947 80.9333 208.9 80.6533L208.888 80.5893C209.461 77.2973 207.605 72.2787 204.109 71.4013Z" fill="#333333"/>
<path d="M185.625 109.099C183.019 124.203 199.327 175.099 209.827 184.605C225.441 198.743 254.312 208.039 264.773 211.063C269.332 212.381 281.947 180.297 277.333 178.184C267.455 173.659 236.761 164.085 233.872 161.627C230.983 159.169 213.345 133.793 205.504 119.157C194.985 99.5213 186.944 101.459 185.625 109.099" fill="#F57A76"/>
<path d="M269.567 175.361C269.567 175.361 283.18 178.831 291.977 181.519C296.885 183.017 305.069 186.339 308.171 189.089C312.809 193.204 329.584 213.373 324.781 217.547C320.435 221.323 308.223 202.165 308.223 202.165C308.223 202.165 322.253 220.408 316.183 223.993C310.112 227.579 299.195 204.097 299.195 204.097C299.195 204.097 313.189 223.165 306.344 225.871C301.171 227.917 290.084 207.207 290.084 207.207C290.084 207.207 302 223.679 296.771 226.012C290.992 228.589 279.559 210.116 279.559 210.116C265.268 213.808 256.952 209.72 251.384 206.108C250.036 205.233 269.567 175.361 269.567 175.361" fill="#F57A76"/>
<path d="M303.775 195.544C305.5 197.627 307.261 199.725 308.796 201.953C310.331 204.184 311.788 206.468 313.109 208.831C316.347 214.625 317.468 218.76 317.371 218.512C315.075 212.651 309.704 204.584 308.169 202.353C306.639 200.129 305.219 197.827 303.688 195.6L303.775 195.544" fill="#333333"/>
<path d="M295.623 200.939C298.58 203.283 304.785 212.012 307.177 217.86C307.277 218.105 307.145 218.087 307 217.863C305.127 214.973 297.557 203.769 295.553 200.984L295.623 200.939" fill="#333333"/>
<path d="M287.795 204.312C291.219 207.7 294.093 212.328 296.355 217.675C296.456 217.917 296.263 217.88 296.123 217.651C293.361 213.155 291.225 209.608 287.653 204.429L287.795 204.312Z" fill="#333333"/>
<path d="M200.465 110.211C188.291 92.992 181.016 99.3747 183.457 118.064C185.74 135.543 191.867 156.365 191.867 156.365L222.588 141.485C222.588 141.485 208.256 121.229 200.465 110.211" fill="#8899FF"/>
<path d="M207.905 116.98C208.34 117.965 208.579 118.987 208.771 120.015C208.937 121.047 209.057 122.088 208.979 123.164C208.543 122.177 208.305 121.157 208.113 120.128C207.948 119.096 207.829 118.055 207.905 116.98Z" fill="white"/>
<path d="M189.728 127.448C190.715 127.013 191.735 126.776 192.763 126.583C193.796 126.416 194.836 126.296 195.912 126.375C194.925 126.812 193.905 127.049 192.876 127.24C191.844 127.405 190.803 127.525 189.728 127.448Z" fill="white"/>
<path d="M190.52 100.673C190.129 101.679 189.576 102.568 188.985 103.431C188.373 104.279 187.721 105.1 186.905 105.804C187.295 104.799 187.848 103.909 188.44 103.047C189.053 102.2 189.705 101.379 190.52 100.673Z" fill="white"/>
<path d="M216.443 135.489C216.052 136.495 215.499 137.384 214.907 138.247C214.295 139.095 213.644 139.916 212.828 140.62C213.217 139.616 213.771 138.725 214.363 137.864C214.976 137.016 215.628 136.196 216.443 135.489Z" fill="white"/>
<path d="M195.187 145.933C194.183 145.543 193.292 144.991 192.429 144.399C191.581 143.787 190.76 143.136 190.056 142.32C191.061 142.708 191.951 143.261 192.813 143.855C193.661 144.468 194.481 145.119 195.187 145.933Z" fill="white"/>
<path d="M204.549 115.392C206.184 117.641 207.877 119.847 209.565 122.056C209.137 120.939 208.767 119.811 208.436 118.657L208.517 118.631C208.859 119.516 209.237 120.387 209.564 121.277C209.721 121.704 209.881 122.131 210.045 122.556L210.153 122.829C211.467 124.553 212.775 126.281 214.039 128.041C215.547 130.14 217.003 132.277 218.465 134.409C219.976 136.612 221.409 139.195 223.005 141.336C223.144 141.521 220.287 142.675 220.02 142.824C219.747 142.976 219.561 142.711 219.852 142.623C220.119 142.541 222.383 141.151 222.411 141.123C220.949 138.973 219.251 136.985 217.72 134.884C216.197 132.792 214.668 130.705 213.192 128.58C210.192 124.267 207.436 119.783 204.46 115.449L204.549 115.392" fill="#333333"/>
<path d="M184.213 130.428C184.68 131.337 185.183 132.237 185.596 133.173C185.767 133.559 185.935 133.947 186.107 134.333C185.405 131.004 184.72 127.673 184.037 124.341L184.099 124.321C185.505 129.719 186.928 135.109 188.236 140.531C189.483 145.699 190.988 150.931 191.701 156.204C192.127 156.064 194.517 155.075 194.587 155.229C194.656 155.385 191.46 156.889 191.417 156.763C189.679 151.611 188.603 145.756 187.419 140.452C187.085 138.959 186.775 137.461 186.456 135.965C186.111 135.064 185.689 134.196 185.28 133.32C184.845 132.393 184.497 131.424 184.117 130.473L184.213 130.428Z" fill="#333333"/>
<path d="M192.353 151.227C196.621 148.819 214.452 139.589 218.443 137.849C218.72 137.728 218.864 137.869 218.593 138.032C205.98 145.547 196.765 149.235 192.456 151.388L192.353 151.227" fill="#333333"/>
<path d="M680.929 501.756H274.692L333.432 168.621H739.669L680.929 501.756Z" fill="#8899FF"/>
<path d="M472.467 134.121H339.515L333.432 168.621H475.713L472.467 134.121" fill="#8899FF"/>
<path d="M680.929 501.756H274.692L333.432 168.621H739.669L733.545 203.356L719.853 281.004L680.929 501.756Z" fill="#6777EF"/>
<path d="M475.713 168.621H333.432L339.515 134.121H472.467L475.713 168.621" fill="#6777EF"/>
<path d="M325.169 148.196C324.643 146.261 324.525 144.328 324.503 142.393C324.523 140.46 324.64 138.527 325.169 136.592C325.697 138.527 325.816 140.46 325.835 142.393C325.812 144.328 325.695 146.261 325.169 148.196Z" fill="#333333"/>
<path d="M313.355 151.612C311.932 150.2 310.863 148.584 309.877 146.921C308.927 145.236 308.063 143.503 307.553 141.563C308.977 142.973 310.047 144.589 311.031 146.255C311.979 147.94 312.843 149.673 313.355 151.612Z" fill="#333333"/>
<path d="M304.832 160.477C302.893 159.967 301.16 159.101 299.473 158.155C297.809 157.171 296.193 156.101 294.783 154.676C296.723 155.185 298.456 156.051 300.14 157C301.804 157.987 303.42 159.056 304.832 160.477" fill="#333333"/>
<path d="M301.884 172.417C299.949 172.944 298.016 173.061 296.083 173.084C294.148 173.064 292.215 172.947 290.28 172.417C292.215 171.889 294.148 171.771 296.083 171.752C298.016 171.773 299.949 171.892 301.884 172.417Z" fill="#333333"/>
<path d="M305.3 184.232C303.888 185.655 302.272 186.724 300.609 187.709C298.924 188.66 297.191 189.524 295.251 190.033C296.661 188.609 298.277 187.539 299.943 186.556C301.628 185.608 303.361 184.744 305.3 184.232Z" fill="#333333"/>
<path d="M314.167 192.755C313.655 194.693 312.789 196.427 311.843 198.113C310.859 199.777 309.789 201.393 308.364 202.804C308.873 200.865 309.739 199.131 310.688 197.447C311.675 195.783 312.744 194.167 314.167 192.755Z" fill="#333333"/>
<path d="M326.105 195.703C326.632 197.637 326.749 199.571 326.772 201.504C326.752 203.439 326.635 205.372 326.105 207.307C325.577 205.372 325.459 203.439 325.44 201.504C325.461 199.571 325.58 197.637 326.105 195.703Z" fill="#333333"/>
<path d="M337.92 192.287C339.343 193.699 340.412 195.315 341.397 196.977C342.348 198.663 343.212 200.396 343.721 202.336C342.297 200.925 341.228 199.309 340.244 197.644C339.296 195.959 338.432 194.224 337.92 192.287Z" fill="#333333"/>
<path d="M346.443 183.421C348.381 183.932 350.115 184.797 351.801 185.744C353.465 186.728 355.081 187.797 356.492 189.223C354.553 188.713 352.819 187.848 351.135 186.899C349.471 185.912 347.855 184.843 346.443 183.421" fill="#333333"/>
<path d="M349.391 171.481C351.325 170.955 353.259 170.837 355.193 170.815C357.127 170.835 359.06 170.952 360.995 171.481C359.06 172.009 357.127 172.128 355.193 172.147C353.259 172.124 351.325 172.007 349.391 171.481Z" fill="#333333"/>
<path d="M345.975 159.667C347.387 158.244 349.003 157.175 350.667 156.189C352.351 155.239 354.084 154.375 356.024 153.865C354.613 155.289 352.997 156.359 351.332 157.343C349.647 158.291 347.912 159.155 345.975 159.667Z" fill="#333333"/>
<path d="M337.109 151.143C337.62 149.205 338.485 147.472 339.432 145.785C340.417 144.121 341.485 142.505 342.911 141.095C342.401 143.033 341.536 144.768 340.587 146.452C339.6 148.116 338.531 149.732 337.109 151.143" fill="#333333"/>
<path d="M680.333 501.756H273.22L215.417 180.716H622.532L680.333 501.756Z" fill="#8899FF"/>
<path d="M373.413 360.049C373.413 369.395 365.837 376.971 356.492 376.971C347.147 376.971 339.571 369.395 339.571 360.049C339.571 350.704 347.147 343.128 356.492 343.128C365.837 343.128 373.413 350.704 373.413 360.049Z" fill="#333333"/>
<path d="M507.181 360.049C507.181 369.395 499.604 376.971 490.259 376.971C480.915 376.971 473.337 369.395 473.337 360.049C473.337 350.704 480.915 343.128 490.259 343.128C499.604 343.128 507.181 350.704 507.181 360.049Z" fill="#333333"/>
<path d="M447.68 379.672L446.751 377.9C446.667 377.74 437.925 361.583 420.336 361.583C404.295 361.583 400.384 376.796 400.225 377.444L399.751 379.383L395.871 378.445L396.337 376.504C396.383 376.316 401.104 357.583 420.336 357.583C440.385 357.583 449.899 375.289 450.293 376.044L451.223 377.815L447.68 379.672" fill="#333333"/>
<path d="M653.455 358.759C654.332 358.571 655.207 358.365 656.076 358.143L655.747 356.851C654.892 357.069 654.035 357.272 653.176 357.456L653.455 358.76" fill="#333333"/>
<path d="M661.243 356.612C662.948 356.036 664.629 355.397 666.281 354.699L665.761 353.471C664.14 354.156 662.489 354.783 660.816 355.348L661.243 356.612ZM671.164 352.415C672.771 351.588 674.339 350.705 675.863 349.768L675.164 348.632C673.669 349.551 672.131 350.419 670.555 351.229L671.164 352.415ZM680.339 346.763C681.801 345.693 683.209 344.571 684.555 343.399L683.679 342.393C682.363 343.539 680.985 344.639 679.552 345.687L680.339 346.763ZM688.461 339.673C689.717 338.357 690.899 336.992 691.993 335.584L690.941 334.765C689.875 336.137 688.724 337.468 687.497 338.752L688.461 339.673ZM695.073 331.136C696.024 329.58 696.872 327.98 697.607 326.343L696.391 325.796C695.68 327.38 694.859 328.931 693.936 330.441L695.073 331.136ZM699.485 321.251C699.989 319.512 700.365 317.739 700.604 315.939L699.281 315.764C699.053 317.496 698.691 319.203 698.204 320.88L699.485 321.251ZM700.955 310.533C700.956 310.404 700.956 310.275 700.956 310.145C700.956 308.448 700.868 306.781 700.699 305.141L699.372 305.279C699.537 306.873 699.623 308.495 699.623 310.145C699.623 310.271 699.623 310.396 699.621 310.523L700.955 310.533ZM699.857 299.812C699.483 298.044 699.019 296.307 698.477 294.596L697.205 294.999C697.735 296.671 698.188 298.365 698.553 300.088L699.857 299.812ZM696.632 289.537C695.952 287.884 695.207 286.253 694.408 284.639L693.213 285.229C694 286.82 694.732 288.423 695.4 290.044L696.632 289.537ZM691.891 279.892C691.016 278.343 690.101 276.807 689.155 275.277L688.021 275.979C688.959 277.495 689.865 279.016 690.729 280.548L691.891 279.892ZM686.271 270.761C685.296 269.277 684.301 267.796 683.296 266.315L682.193 267.064C683.196 268.541 684.187 270.017 685.156 271.493L686.271 270.761ZM680.288 261.907C679.285 260.441 678.283 258.973 677.288 257.497L676.183 258.243C677.18 259.723 678.185 261.193 679.187 262.659L680.288 261.907ZM674.347 253.056C673.381 251.568 672.433 250.069 671.511 248.556L670.372 249.249C671.303 250.776 672.257 252.285 673.228 253.783L674.347 253.056ZM668.831 243.969C667.969 242.424 667.143 240.861 666.359 239.277L665.164 239.868C665.957 241.475 666.795 243.057 667.665 244.619L668.831 243.969ZM664.152 234.468C663.469 232.849 662.837 231.207 662.267 229.536L661.004 229.968C661.587 231.671 662.229 233.341 662.924 234.987L664.152 234.468ZM660.751 224.48C660.316 222.793 659.947 221.076 659.651 219.324L658.336 219.547C658.639 221.336 659.016 223.091 659.459 224.812L660.751 224.48ZM658.999 214.096C658.872 212.511 658.805 210.896 658.805 209.252C658.805 209.109 658.805 208.967 658.807 208.825L657.473 208.816C657.472 208.961 657.472 209.107 657.472 209.252C657.472 210.932 657.54 212.581 657.671 214.203L658.999 214.096ZM659.068 203.551C659.101 203.185 659.139 202.819 659.179 202.449C659.333 201.032 659.529 199.656 659.764 198.321L658.452 198.089C658.211 199.453 658.011 200.859 657.853 202.305C657.812 202.681 657.775 203.056 657.74 203.429L659.068 203.551ZM660.917 193.181C661.397 191.437 661.951 189.775 662.571 188.188L661.329 187.703C660.691 189.333 660.124 191.04 659.632 192.828L660.917 193.181ZM664.755 183.409C665.593 181.827 666.504 180.333 667.483 178.924L666.388 178.164C665.379 179.616 664.439 181.156 663.576 182.787L664.755 183.409ZM670.736 174.807C671.919 173.485 673.167 172.257 674.471 171.116L673.593 170.113C672.249 171.288 670.963 172.555 669.743 173.917L670.736 174.807ZM678.625 167.893C680.079 166.893 681.581 165.983 683.12 165.153L682.488 163.98C680.909 164.829 679.365 165.767 677.869 166.795L678.625 167.893ZM687.883 162.893C689.515 162.215 691.172 161.617 692.844 161.096L692.447 159.823C690.737 160.356 689.041 160.968 687.371 161.663L687.883 162.893ZM697.948 159.736C699.685 159.351 701.424 159.037 703.151 158.793L702.964 157.473C701.204 157.723 699.431 158.041 697.659 158.435L697.948 159.736ZM708.412 158.251C710 158.145 711.567 158.096 713.097 158.096C713.299 158.096 713.5 158.097 713.7 158.099L713.712 156.765C713.508 156.764 713.303 156.763 713.097 156.763C711.537 156.763 709.943 156.813 708.324 156.92L708.412 158.251ZM718.98 158.347C720.816 158.505 722.569 158.735 724.215 159.025L724.445 157.712C722.76 157.415 720.968 157.18 719.095 157.017L718.98 158.347ZM729.335 160.22C729.635 160.309 729.927 160.401 730.213 160.496C731.68 160.979 733.004 161.525 734.189 162.121L734.789 160.931C733.539 160.301 732.155 159.731 730.631 159.229C730.332 159.132 730.028 159.036 729.717 158.943L729.335 160.22ZM738.479 164.971C739.895 166.224 740.917 167.571 741.589 168.941L742.787 168.353C742.031 166.813 740.896 165.329 739.363 163.972L738.479 164.971ZM742.587 173.772C742.479 175.415 741.925 177.001 740.967 178.424L742.073 179.169C743.156 177.563 743.795 175.745 743.917 173.859L742.587 173.772ZM737.309 181.845C735.959 182.664 734.369 183.3 732.564 183.684L732.841 184.988C734.784 184.575 736.515 183.887 738.001 182.987L737.309 181.845ZM727.427 184.072C726.725 184.039 726.004 183.972 725.264 183.871C724.245 183.731 723.237 183.561 722.244 183.363L721.981 184.671C723.003 184.875 724.037 185.048 725.083 185.192C725.861 185.299 726.623 185.368 727.364 185.404L727.427 184.072ZM717.147 182.055C715.46 181.524 713.817 180.904 712.221 180.2L711.684 181.42C713.324 182.144 715.012 182.78 716.745 183.327L717.147 182.055ZM707.532 177.815C706.013 176.932 704.547 175.967 703.137 174.924L702.344 175.996C703.793 177.068 705.3 178.06 706.863 178.967L707.532 177.815ZM699.085 171.571C697.801 170.383 696.579 169.124 695.421 167.797L694.416 168.673C695.605 170.036 696.861 171.329 698.181 172.549L699.085 171.571ZM692.172 163.653C691.169 162.227 690.233 160.74 689.367 159.196L688.204 159.848C689.092 161.431 690.052 162.957 691.081 164.421L692.172 163.653ZM687.02 154.479C686.323 152.884 685.693 151.241 685.139 149.553L683.872 149.971C684.44 151.697 685.084 153.38 685.799 155.013L687.02 154.479ZM683.723 144.473C683.333 142.78 683.013 141.048 682.767 139.284L681.445 139.468C681.697 141.271 682.024 143.04 682.424 144.772L683.723 144.473ZM682.257 134.028C682.193 132.847 682.16 131.651 682.16 130.444C682.16 129.88 682.167 129.315 682.181 128.747L680.849 128.712C680.833 129.292 680.827 129.869 680.827 130.444C680.827 131.676 680.86 132.895 680.927 134.101L682.257 134.028ZM682.519 123.472C682.695 121.745 682.937 119.999 683.248 118.235L681.935 118.003C681.619 119.799 681.372 121.577 681.192 123.337L682.519 123.472ZM684.345 113.059C684.764 111.373 685.244 109.675 685.788 107.965L684.517 107.56C683.964 109.297 683.476 111.023 683.052 112.737L684.345 113.059ZM687.551 102.971C688.2 101.299 688.903 99.684 689.653 98.1253L688.451 97.548C687.687 99.1374 686.971 100.783 686.308 102.488L687.551 102.971ZM692.128 93.46C693.029 91.9133 693.976 90.428 694.964 89.004L693.868 88.244C692.861 89.6974 691.895 91.212 690.976 92.7894L692.128 93.46ZM698.14 84.78C699.269 83.3934 700.436 82.0707 701.631 80.8094L700.663 79.892C699.445 81.1773 698.257 82.5254 697.107 83.9387L698.14 84.78ZM705.404 77.104C706.728 75.8934 708.073 74.7494 709.431 73.6707L708.601 72.6267C707.221 73.7253 705.852 74.888 704.504 76.12L705.404 77.104ZM713.681 70.5107C715.165 69.48 716.651 68.5187 718.124 67.624L717.432 66.4854C715.937 67.392 714.428 68.368 712.92 69.416L713.681 70.5107ZM722.735 65.008C724.36 64.1467 725.952 63.3667 727.489 62.6587L726.932 61.448C725.373 62.164 723.76 62.956 722.111 63.8307L722.735 65.008ZM732.368 60.576C734.172 59.864 735.848 59.2654 737.356 58.7654L736.937 57.5C735.407 58.0067 733.707 58.6147 731.879 59.336L732.368 60.576" fill="#333333"/>
<path d="M742.693 57.1867C743.511 56.976 744.151 56.8267 744.585 56.7307C744.803 56.6827 744.968 56.6493 745.079 56.6267L745.241 56.5947L744.996 55.284C744.983 55.2867 744.028 55.4653 742.361 55.8947L742.693 57.1867" fill="#333333"/>
<path d="M766.265 48.5734C762.861 38.0347 740.089 41.8214 744.535 55.5894C748.981 69.3587 769.668 59.112 766.265 48.5734Z" fill="#333333"/>
<path d="M732.148 44.3253C732.319 39.7027 738.749 36.1467 747.837 37.788C756.925 39.4294 765.485 45.5507 765.485 45.5507C765.485 45.5507 756.499 51.048 747.313 52.0174C738.131 52.9867 731.977 48.968 732.148 44.3253" fill="#E7E8E5"/>
<path d="M765.485 45.5507C760.767 45.5827 756.055 45.424 751.341 45.28C746.632 45.0787 741.92 44.892 737.216 44.512C741.936 44.476 746.647 44.6373 751.361 44.7813C756.071 44.9827 760.781 45.1707 765.485 45.5507" fill="#333333"/>
<path d="M741.284 40.2333C742.648 40.844 743.912 41.6174 745.183 42.3787C746.423 43.1894 747.672 43.9867 748.816 44.948C747.451 44.3374 746.189 43.5627 744.917 42.8013C743.677 41.9907 742.429 41.192 741.284 40.2333Z" fill="#333333"/>
<path d="M753.639 45.1147C752.443 46.128 751.144 46.9814 749.855 47.8467C748.531 48.664 747.219 49.4933 745.8 50.16C746.993 49.144 748.293 48.292 749.584 47.4267C750.907 46.6107 752.22 45.7827 753.639 45.1147" fill="#333333"/>
<path d="M755.009 42.512C755.713 42.8147 756.297 43.2667 756.889 43.7067C757.447 44.192 758.013 44.6667 758.457 45.292C757.751 44.9907 757.169 44.5373 756.577 44.096C756.02 43.6107 755.455 43.1347 755.009 42.512Z" fill="#333333"/>
<path d="M740.808 71.7547C743.649 75.404 750.945 74.528 757.359 67.8813C763.771 61.236 767.135 51.264 767.135 51.264C767.135 51.264 756.629 52.0613 748.612 56.6453C740.595 61.2307 737.955 68.088 740.808 71.7547Z" fill="#E7E8E5"/>
<path d="M767.135 51.264C763.287 53.9973 759.557 56.8827 755.819 59.7547C752.116 62.6734 748.404 65.58 744.811 68.64C748.659 65.908 752.388 63.0227 756.125 60.1494C759.828 57.2294 763.54 54.3227 767.135 51.264" fill="#333333"/>
<path d="M750.612 69.7307C751.361 68.4373 751.933 67.0707 752.52 65.7107C753.052 64.328 753.599 62.952 753.965 61.5014C753.213 62.7947 752.641 64.1614 752.057 65.5227C751.525 66.9054 750.98 68.2827 750.612 69.7307" fill="#333333"/>
<path d="M757.779 58.5467C756.216 58.4227 754.664 58.4906 753.111 58.5426C751.561 58.6533 750.011 58.7493 748.469 59.0386C750.031 59.164 751.584 59.0946 753.137 59.0413C754.688 58.9306 756.239 58.8347 757.779 58.5467" fill="#333333"/>
<path d="M760.413 59.856C760.805 59.1974 761.016 58.4907 761.24 57.7854C761.407 57.0667 761.588 56.3507 761.584 55.5854C761.188 56.2414 760.98 56.9494 760.757 57.6534C760.589 58.3734 760.409 59.0894 760.413 59.856Z" fill="#333333"/>
<path d="M766.265 48.5733C764.165 49.252 761.915 48.0987 761.236 46C760.557 43.9 761.711 41.648 763.809 40.9707C765.909 40.292 768.161 41.4453 768.839 43.544C769.517 45.644 768.364 47.896 766.265 48.5733Z" fill="#333333"/>
<path d="M768.72 56.1774C766.621 56.8547 764.368 55.7027 763.692 53.6027C763.013 51.504 764.165 49.252 766.265 48.5734C768.364 47.896 770.616 49.048 771.295 51.148C771.972 53.2467 770.82 55.4987 768.72 56.1774Z" fill="#333333"/>
<path d="M331.591 52.7827C329.683 71.0334 313.331 84.2894 295.079 82.38C287.703 81.608 281.145 78.4774 276.068 73.8014L259.443 76.2427L267.761 61.8694C265.743 56.9587 264.892 51.4934 265.481 45.8667C267.389 27.616 283.743 14.3614 301.993 16.2694C320.245 18.1787 333.5 34.5307 331.591 52.7827" fill="white"/>
<path d="M331.591 52.7827C332.601 42.7667 328.84 32.3667 321.501 25.4867C317.857 22.0454 313.445 19.4387 308.685 17.9253C303.917 16.4333 298.816 16.0787 293.905 16.8174C288.997 17.5707 284.244 19.4 280.18 22.24C276.127 25.0867 272.707 28.8094 270.237 33.0854C267.719 37.3507 266.415 42.24 266.019 47.1467C265.708 52.0694 266.512 57.052 268.359 61.624L268.477 61.9214L268.32 62.192L259.952 76.5374L259.357 75.66L275.999 73.3293L276.228 73.2973L276.392 73.4507C280.791 77.58 286.357 80.4627 292.305 81.6467C293.791 81.9467 295.297 82.1347 296.813 82.1947C298.328 82.356 299.843 82.2427 301.361 82.188C304.371 81.8787 307.404 81.3694 310.236 80.2347C313.081 79.1694 315.831 77.772 318.252 75.9134C319.527 75.0667 320.605 73.9774 321.763 72.984C322.783 71.852 323.908 70.8067 324.784 69.552C328.599 64.764 330.856 58.8454 331.591 52.7827V52.7827ZM331.591 52.7827C330.897 58.8494 328.679 64.796 324.884 69.628C324.012 70.8947 322.889 71.952 321.872 73.096C320.717 74.1013 319.64 75.2054 318.364 76.0654C315.935 77.9374 313.203 79.4053 310.348 80.528C307.507 81.724 304.449 82.2947 301.401 82.6627C299.864 82.7453 298.324 82.8854 296.784 82.7494C295.241 82.7147 293.705 82.5507 292.185 82.272C286.104 81.1707 280.344 78.324 275.744 74.1534L276.137 74.2747L259.528 76.824L258.323 77.0094L258.933 75.9467L267.203 61.5454L267.164 62.1147C263.136 52.6294 264.044 41.3334 269.211 32.496C271.787 28.0694 275.379 24.256 279.619 21.412C283.857 18.56 288.771 16.772 293.801 16.0907C298.837 15.4227 304.02 15.8814 308.829 17.4787C313.632 19.096 318.036 21.816 321.644 25.3374C328.983 32.312 332.671 42.776 331.591 52.7827" fill="#333333"/>
<path d="M283.668 56.9387L282.896 30.4867H288.187L287.416 56.9387H283.668ZM282.291 64.82C282.291 62.836 283.668 61.4027 285.541 61.4027C287.527 61.4027 288.793 62.836 288.793 64.82C288.793 66.748 287.527 68.236 285.541 68.236C283.613 68.236 282.291 66.748 282.291 64.82Z" fill="#8899FF"/>
<path d="M296.344 56.9387L295.573 30.4867H300.863L300.092 56.9387H296.344ZM294.967 64.82C294.967 62.836 296.344 61.4027 298.219 61.4027C300.201 61.4027 301.471 62.836 301.471 64.82C301.471 66.748 300.201 68.236 298.219 68.236C296.289 68.236 294.967 66.748 294.967 64.82Z" fill="#8899FF"/>
<path d="M309.021 56.9387L308.249 30.4867H313.54L312.768 56.9387H309.021ZM307.643 64.82C307.643 62.836 309.021 61.4027 310.895 61.4027C312.879 61.4027 314.145 62.836 314.145 64.82C314.145 66.748 312.879 68.236 310.895 68.236C308.965 68.236 307.643 66.748 307.643 64.82Z" fill="#8899FF"/>
</svg>
